
<svg xmlns="http://www.w3.org/2000/svg" xmlns:xlink="http://www.w3.org/1999/xlink" version="1.1" width="1080" height="1080" viewBox="0 0 1080 1080" xml:space="preserve">
<desc>Created with Fabric.js 5.2.4</desc>
<defs>
</defs>
<g transform="matrix(1 0 0 1 540 540)" id="dbabe813-56be-4757-b3c1-9a1081bc99f2"  >
<rect style="stroke: none; stroke-width: 1; stroke-dasharray: none; stroke-linecap: butt; stroke-dashoffset: 0; stroke-linejoin: miter; stroke-miterlimit: 4; fill: rgb(255,255,255); fill-rule: nonzero; opacity: 1; visibility: hidden;" vector-effect="non-scaling-stroke"  x="-540" y="-540" rx="0" ry="0" width="1080" height="1080" />
</g>
<g transform="matrix(1 0 0 1 540 540)" id="49663e91-3b2b-4010-9621-e32c43927393"  >
</g>
<g transform="matrix(1.96 0 0 1.96 540 540)"  >
<g style=""   >
		<g transform="matrix(1 0 0 1 -185.38 62.72)"  >
<linearGradient id="SVGID_color-16037139316_3" gradientUnits="userSpaceOnUse" gradientTransform="matrix(1 0 0 1 0 0)"  x1="65" y1="235" x2="485" y2="235">
<stop offset="0%" style="stop-color:rgb(237,66,100);stop-opacity: 1"/>
<stop offset="100%" style="stop-color:rgb(255,237,188);stop-opacity: 1"/>
</linearGradient>
<path style="stroke: none; stroke-width: 1; stroke-dasharray: none; stroke-linecap: butt; stroke-dashoffset: 0; stroke-linejoin: miter; stroke-miterlimit: 10; fill: url(#SVGID_color-16037139316_3); fill-rule: nonzero; opacity: 1;" vector-effect="non-scaling-stroke"  transform=" translate(-89.62, -297.72)" d="M 110.04997 281.18718 L 110.04997 299.38424000000003 C 110.04997 304.91517000000005 105.83461 309.99626 100.90012 309.99626 C 96.0051 309.99626 92.14227 305.59824000000003 91.75667 300.28646000000003 L 91.75667 288.96918000000005 L 87.48882 288.96918000000005 L 87.48882 300.28646000000003 C 87.10322000000001 305.59802 83.24038 309.99626 78.34516 309.99626 C 73.41067000000001 309.99626 69.19531 304.91517 69.19531 299.38424000000003 L 69.19531 281.18718 L 65.00001 281.18718 L 65.00001 299.38424000000003 C 65.00001 310.4909 73.57413 314.26262 78.41601 314.26262 C 81.81493 314.26262 86.82133 312.50640000000004 89.62275 307.81603 C 92.42416999999999 312.50661 97.43036 314.26262 100.82948999999999 314.26262 C 105.67093999999999 314.26262 114.24528 310.4909 114.24528 299.38424000000003 L 114.24528 281.18718 z" stroke-linecap="round" />
</g>
		<g transform="matrix(1 0 0 1 -133.31 62.78)"  >
<linearGradient id="SVGID_color-16037139316_4" gradientUnits="userSpaceOnUse" gradientTransform="matrix(1 0 0 1 0 0)"  x1="65" y1="235" x2="485" y2="235">
<stop offset="0%" style="stop-color:rgb(237,66,100);stop-opacity: 1"/>
<stop offset="100%" style="stop-color:rgb(255,237,188);stop-opacity: 1"/>
</linearGradient>
<path style="stroke: none; stroke-width: 1; stroke-dasharray: none; stroke-linecap: butt; stroke-dashoffset: 0; stroke-linejoin: miter; stroke-miterlimit: 10; fill: url(#SVGID_color-16037139316_4); fill-rule: nonzero; opacity: 1;" vector-effect="non-scaling-stroke"  transform=" translate(-141.69, -297.78)" d="M 141.71012 281.28043 C 129.00493 281.28043 119.88665999999999 288.52789 119.88665999999999 297.77995000000004 C 119.88665999999999 307.03202000000005 129.14385 314.27947000000006 141.71012 314.27947000000006 C 153.73117 314.27947000000006 163.49196999999998 307.03201000000007 163.49196999999998 297.77995000000004 C 163.49196999999998 288.52788000000004 154.43452 281.28043 141.71012 281.28043 z M 141.71012 309.99968 C 131.95998999999998 309.99968 124.21191999999999 304.84155 124.21191999999999 297.77996 C 124.21191999999999 290.56451000000004 131.78415999999999 285.53527 141.71012 285.53527 C 152.23507999999998 285.53527 159.26957 290.72519 159.26957 297.77996 C 159.26957 305.00010000000003 151.33562999999998 309.99968 141.71012 309.99968 z" stroke-linecap="round" />
</g>
		<g transform="matrix(1 0 0 1 -87.99 62.77)"  >
<linearGradient id="SVGID_color-16037139316_5" gradientUnits="userSpaceOnUse" gradientTransform="matrix(1 0 0 1 0 0)"  x1="65" y1="235" x2="485" y2="235">
<stop offset="0%" style="stop-color:rgb(237,66,100);stop-opacity: 1"/>
<stop offset="100%" style="stop-color:rgb(255,237,188);stop-opacity: 1"/>
</linearGradient>
<path style="stroke: none; stroke-width: 1; stroke-dasharray: none; stroke-linecap: butt; stroke-dashoffset: 0; stroke-linejoin: miter; stroke-miterlimit: 10; fill: url(#SVGID_color-16037139316_5); fill-rule: nonzero; opacity: 1;" vector-effect="non-scaling-stroke"  transform=" translate(-187.01, -297.77)" d="M 197.61639 299.50673 C 198.69232 299.02937000000003 204.27232 296.10589 204.27232 291.36324 C 204.27232 285.30054 200.43061 281.35299000000003 174.1035 281.35299000000003 L 174.1035 281.35043 L 169.75136 281.35043 L 169.75136 314.18815 L 174.1035 314.18815 L 174.1035 303.37405 C 182.81846 304.61984 191.12797 302.54246 193.92043 301.64045 C 195.45195 302.07342 199.94045 305.84898 199.94045 309.97429 L 199.94045 314.18816 L 204.1795 314.18816 L 204.1795 309.97429 C 204.1795 304.15486 199.30517999999998 299.58271 197.61639 299.50674 z M 174.10328 299.10641 L 174.10328 285.73906 C 189.98610000000002 285.73906 199.95154000000002 286.09308 199.95154000000002 291.36303 C 199.95154000000002 295.45653999999996 189.28383000000002 300.79456 174.10328 299.10641 z" stroke-linecap="round" />
</g>
		<g transform="matrix(1 0 0 1 -48.04 62.93)"  >
<linearGradient id="SVGID_color-16037139316_6" gradientUnits="userSpaceOnUse" gradientTransform="matrix(1 0 0 1 0 0)"  x1="65" y1="235" x2="485" y2="235">
<stop offset="0%" style="stop-color:rgb(237,66,100);stop-opacity: 1"/>
<stop offset="100%" style="stop-color:rgb(255,237,188);stop-opacity: 1"/>
</linearGradient>
<path style="stroke: none; stroke-width: 1; stroke-dasharray: none; stroke-linecap: butt; stroke-dashoffset: 0; stroke-linejoin: miter; stroke-miterlimit: 10; fill: url(#SVGID_color-16037139316_6); fill-rule: nonzero; opacity: 1;" vector-effect="non-scaling-stroke"  transform=" translate(-226.96, -297.93)" d="M 227.73635 295.63344 C 220.79341 294.74018 213.85002999999998 293.76327000000003 213.85002999999998 289.96573 C 213.85002999999998 287.3139 220.02795999999998 285.48299000000003 226.18881999999996 285.48299000000003 C 231.01490999999996 285.48299000000003 237.57246999999995 287.10776000000004 239.28152999999998 289.98558 L 242.26219999999998 287.00640000000004 C 239.72347 283.37723000000005 231.47647999999998 281.24906000000004 226.17857999999998 281.24906000000004 C 219.59562999999997 281.24906000000004 209.52136 283.40262000000007 209.52136 289.96999000000005 C 209.52136 298.43677 220.20465 298.69028000000003 227.15932999999998 299.82809000000003 C 233.8876 300.92898 240.27913999999998 302.06167000000005 240.27913999999998 305.33917 C 240.27913999999998 308.17601 232.88870999999997 310.37012000000004 227.09957999999997 310.37012000000004 C 221.93120999999996 310.37012000000004 215.15662999999998 308.57570000000004 214.04357 305.50370000000004 L 211.10857 308.43870000000004 C 213.31163999999998 312.48207 222.23614999999998 314.60191000000003 227.02936999999997 314.60191000000003 C 234.79685999999998 314.60191000000003 244.39889999999997 311.9456 244.39889999999997 305.33491000000004 C 244.39932999999996 298.14592000000005 234.92063999999996 296.55764000000005 227.73633999999998 295.63344000000006 z" stroke-linecap="round" />
</g>
		<g transform="matrix(1 0 0 1 -7.17 62.84)"  >
<linearGradient id="SVGID_color-16037139316_7" gradientUnits="userSpaceOnUse" gradientTransform="matrix(1 0 0 1 0 0)"  x1="65" y1="235" x2="485" y2="235">
<stop offset="0%" style="stop-color:rgb(237,66,100);stop-opacity: 1"/>
<stop offset="100%" style="stop-color:rgb(255,237,188);stop-opacity: 1"/>
</linearGradient>
<path style="stroke: none; stroke-width: 1; stroke-dasharray: none; stroke-linecap: butt; stroke-dashoffset: 0; stroke-linejoin: miter; stroke-miterlimit: 10; fill: url(#SVGID_color-16037139316_7); fill-rule: nonzero; opacity: 1;" vector-effect="non-scaling-stroke"  transform=" translate(-267.83, -297.84)" d="M 280.91124 281.49127 L 280.91124 295.65862999999996 L 254.87968 295.65862999999996 L 254.87968 281.49127 L 250.55954 281.49127 L 250.55954 314.18836999999996 L 254.87968 314.18836999999996 L 254.87968 299.9077 L 280.91124 299.9077 L 280.91124 314.18836999999996 L 285.09758 314.18836999999996 L 285.09758 281.49127 z" stroke-linecap="round" />
</g>
		<g transform="matrix(1 0 0 1 20.3 62.8)"  >
<linearGradient id="SVGID_color-16037139316_8" gradientUnits="userSpaceOnUse" gradientTransform="matrix(1 0 0 1 0 0)"  x1="65" y1="235" x2="485" y2="235">
<stop offset="0%" style="stop-color:rgb(237,66,100);stop-opacity: 1"/>
<stop offset="100%" style="stop-color:rgb(255,237,188);stop-opacity: 1"/>
</linearGradient>
<path style="stroke: none; stroke-width: 1; stroke-dasharray: none; stroke-linecap: butt; stroke-dashoffset: 0; stroke-linejoin: miter; stroke-miterlimit: 10; fill: url(#SVGID_color-16037139316_8); fill-rule: nonzero; opacity: 1;" vector-effect="non-scaling-stroke"  transform=" translate(-295.3, -297.8)" d="M 297.43811 314.17513 L 297.43811 281.42789000000005 L 293.17026 281.42789000000005 L 293.17026 314.17513 z" stroke-linecap="round" />
</g>
		<g transform="matrix(1 0 0 1 47.73 62.77)"  >
<linearGradient id="SVGID_color-16037139316_9" gradientUnits="userSpaceOnUse" gradientTransform="matrix(1 0 0 1 0 0)"  x1="65" y1="235" x2="485" y2="235">
<stop offset="0%" style="stop-color:rgb(237,66,100);stop-opacity: 1"/>
<stop offset="100%" style="stop-color:rgb(255,237,188);stop-opacity: 1"/>
</linearGradient>
<path style="stroke: none; stroke-width: 1; stroke-dasharray: none; stroke-linecap: butt; stroke-dashoffset: 0; stroke-linejoin: miter; stroke-miterlimit: 10; fill: url(#SVGID_color-16037139316_9); fill-rule: nonzero; opacity: 1;" vector-effect="non-scaling-stroke"  transform=" translate(-322.73, -297.77)" d="M 309.85984 281.35299 L 305.59839 281.35299 L 305.59839 314.18836999999996 L 309.85984 314.18836999999996 L 309.85984 301.44604999999996 C 310.95006 301.44753999999995 312.02748 301.45351999999997 313.08228 301.46012999999994 C 314.21646000000004 301.46716999999995 315.33101000000005 301.4742099999999 316.42209 301.4742099999999 C 325.74244000000004 301.4742099999999 339.86114000000003 300.3124999999999 339.86114000000003 291.3634499999999 C 339.86114000000003 285.6103799999999 334.19578 281.35298999999986 309.85983000000004 281.35298999999986 z M 309.85984 297.22855 L 309.85984 285.70705 C 325.18634000000003 285.70705 335.7081 287.06615 335.7081 291.36323999999996 C 335.7081 298.6314 310.95199 297.23026 309.85984 297.22855 z" stroke-linecap="round" />
</g>
		<g transform="matrix(1 0 0 1 105.65 62.84)"  >
<linearGradient id="SVGID_color-16037139316_10" gradientUnits="userSpaceOnUse" gradientTransform="matrix(1 0 0 1 0 0)"  x1="65" y1="235" x2="485" y2="235">
<stop offset="0%" style="stop-color:rgb(237,66,100);stop-opacity: 1"/>
<stop offset="100%" style="stop-color:rgb(255,237,188);stop-opacity: 1"/>
</linearGradient>
<path style="stroke: none; stroke-width: 1; stroke-dasharray: none; stroke-linecap: butt; stroke-dashoffset: 0; stroke-linejoin: miter; stroke-miterlimit: 10; fill: url(#SVGID_color-16037139316_10); fill-rule: nonzero; opacity: 1;" vector-effect="non-scaling-stroke"  transform=" translate(-380.65, -297.84)" d="M 398.38795 281.49127 L 394.15509 281.49127 C 394.19201 291.745 394.23895 306.94966 394.176 309.90152 C 370.69896 309.90152 372.72128 281.49127 366.26936 281.49127 L 362.91995000000003 281.49127 L 362.91995000000003 314.18836999999996 L 367.30240000000003 314.18836999999996 L 367.30240000000003 290.78878999999995 C 368.37513 294.00503999999995 372.22836 314.18814999999995 395.43353 314.18814999999995 L 398.38795000000005 314.18814999999995 C 398.38795000000005 314.18814999999995 398.39243000000005 282.81494 398.38795000000005 281.49126999999993 z" stroke-linecap="round" />
</g>
		<g transform="matrix(1 0 0 1 146.33 62.85)"  >
<linearGradient id="SVGID_color-16037139316_11" gradientUnits="userSpaceOnUse" gradientTransform="matrix(1 0 0 1 0 0)"  x1="65" y1="235" x2="485" y2="235">
<stop offset="0%" style="stop-color:rgb(237,66,100);stop-opacity: 1"/>
<stop offset="100%" style="stop-color:rgb(255,237,188);stop-opacity: 1"/>
</linearGradient>
<path style="stroke: none; stroke-width: 1; stroke-dasharray: none; stroke-linecap: butt; stroke-dashoffset: 0; stroke-linejoin: miter; stroke-miterlimit: 10; fill: url(#SVGID_color-16037139316_11); fill-rule: nonzero; opacity: 1;" vector-effect="non-scaling-stroke"  transform=" translate(-421.33, -297.85)" d="M 436.17528 299.94483 L 436.17528 295.63899000000004 L 410.7681 295.63899000000004 L 410.7681 285.69532000000004 L 436.16589 285.69532000000004 L 436.16589 281.48060000000004 L 406.49449 281.48060000000004 L 406.49449 314.22208000000006 L 436.17528 314.22208000000006 L 436.17528 309.90600000000006 L 410.7681 309.90600000000006 L 410.7681 299.9448300000001 z" stroke-linecap="round" />
</g>
		<g transform="matrix(1 0 0 1 188.2 62.78)"  >
<linearGradient id="SVGID_color-16037139316_12" gradientUnits="userSpaceOnUse" gradientTransform="matrix(1 0 0 1 0 0)"  x1="65" y1="235" x2="485" y2="235">
<stop offset="0%" style="stop-color:rgb(237,66,100);stop-opacity: 1"/>
<stop offset="100%" style="stop-color:rgb(255,237,188);stop-opacity: 1"/>
</linearGradient>
<path style="stroke: none; stroke-width: 1; stroke-dasharray: none; stroke-linecap: butt; stroke-dashoffset: 0; stroke-linejoin: miter; stroke-miterlimit: 10; fill: url(#SVGID_color-16037139316_12); fill-rule: nonzero; opacity: 1;" vector-effect="non-scaling-stroke"  transform=" translate(-463.2, -297.78)" d="M 463.21815 281.28043 C 450.51295999999996 281.28043 441.39468999999997 288.52789 441.39468999999997 297.77995000000004 C 441.39468999999997 307.03202000000005 450.65187999999995 314.27947000000006 463.21815 314.27947000000006 C 475.2392 314.27947000000006 485 307.03201000000007 485 297.77995000000004 C 485 288.52788000000004 475.94255 281.28043 463.21815 281.28043 z M 463.21815 309.99968 C 453.46801999999997 309.99968 445.71995 304.84155 445.71995 297.77996 C 445.71995 290.56451000000004 453.29219 285.53527 463.21815 285.53527 C 473.74311 285.53527 480.7776 290.72519 480.7776 297.77996 C 480.7776 305.00010000000003 472.84366 309.99968 463.21815000000004 309.99968 z" stroke-linecap="round" />
</g>
		<g transform="matrix(1 0 0 1 0 -27.09)"  >
<linearGradient id="SVGID_color-16037139316_13" gradientUnits="userSpaceOnUse" gradientTransform="matrix(1 0 0 1 0 0)"  x1="65" y1="235" x2="485" y2="235">
<stop offset="0%" style="stop-color:rgb(237,66,100);stop-opacity: 1"/>
<stop offset="100%" style="stop-color:rgb(255,237,188);stop-opacity: 1"/>
</linearGradient>
<path style="stroke: none; stroke-width: 1; stroke-dasharray: none; stroke-linecap: butt; stroke-dashoffset: 0; stroke-linejoin: miter; stroke-miterlimit: 10; fill: url(#SVGID_color-16037139316_13); fill-rule: nonzero; opacity: 1;" vector-effect="non-scaling-stroke"  transform=" translate(-275, -207.91)" d="M 319.37966 155.471 L 348.04229 155.471 L 314.85781 260.42145 L 286.55985 260.42145 L 275.03646 229.42497 L 262.71081 260.42145 L 259.79348999999996 260.42145 L 275.03646 221.83995 L 288.38318 257.72294 L 312.81570999999997 257.72294 L 344.32271999999995 158.16953 L 321.34885999999995 158.16953 L 299.90658999999994 225.55953 L 275.03646999999995 161.15978 L 236.74669999999995 260.42145 L 235.50683999999995 260.42145 L 201.95770999999996 155.471 L 230.69327999999996 155.471 L 249.07237999999995 213.08799 L 247.68665999999996 217.68277 L 228.65116999999995 158.16952 L 205.67730999999995 158.16952 L 236.30912999999995 254.00335 L 274.3071699999999 155.39807000000002 L 275.6928899999999 155.39807000000002 L 299.6878099999999 217.31810000000002 z" stroke-linecap="round" />
</g>	
</g>
</g>
</svg>