<?xml version="1.0" encoding="iso-8859-1"?>
<!-- Uploaded to: SVG Repo, www.svgrepo.com, Generator: SVG Repo Mixer Tools -->
<svg height="800px" width="800px" version="1.1" id="Layer_1" xmlns="http://www.w3.org/2000/svg" xmlns:xlink="http://www.w3.org/1999/xlink" 
	 viewBox="0 0 425 425" xml:space="preserve">
<g>
	<path style="fill:#37495E;" d="M334.013,425H90.987C62.828,425,40,402.172,40,374.013V50.987C40,22.828,62.828,0,90.987,0h243.026
		C362.172,0,385,22.828,385,50.987v323.026C385,402.172,362.172,425,334.013,425z"/>
	<path style="fill:#EFEFEF;" d="M90.986,385C84.929,385,80,380.071,80,374.014V50.986C80,44.929,84.929,40,90.986,40h243.027
		C340.071,40,345,44.929,345,50.986v323.027c0,6.058-4.929,10.986-10.986,10.986H90.986V385z"/>
	<polygon style="fill:#F8A805;" points="267.5,179.5 267.5,144.5 157.5,144.5 157.5,179.5 195,179.5 195,316 157.5,316 157.5,351 
		267.5,351 267.5,316 230,316 230,179.5 	"/>
	<circle style="fill:#F8A805;" cx="212.5" cy="93" r="22.5"/>
</g>
</svg>