<?xml version="1.0" encoding="utf-8"?>
<!-- Uploaded to: SVG Repo, www.svgrepo.com, Generator: SVG Repo Mixer Tools -->
<svg width="800px" height="800px" viewBox="0 0 1024 1024" class="icon"  version="1.1" xmlns="http://www.w3.org/2000/svg"><path d="M961.79712 388.63872V247.02976c0-0.8192-0.2048-1.57696-0.24064-2.38592V239.104h-0.55808c-3.88096-27.05408-26.92096-47.9232-55.04512-47.9232H129.08544c-28.12928 0-51.16928 20.86912-55.05024 47.9232h-0.79872v200.95488h0.24064v40.05888c-0.03584 0.80896-0.24064 1.57184-0.24064 2.38592v305.59744c0 0.8192 0.2048 1.57696 0.24064 2.38592v5.53472h0.55808c3.88096 27.05408 26.92096 47.9232 55.04512 47.9232h776.86272c28.12928 0 51.16928-20.86912 55.05024-47.9232h0.79872V431.08864h-0.24064v-40.05888c0.04096-0.80896 0.24576-1.57184 0.24576-2.39104z" fill="#5B5144" /><path d="M906.2656 419.38944V295.48032c0-0.7168-0.1792-1.3824-0.20992-2.08896v-4.84352h-0.4864c-3.39456-23.67488-23.55712-41.9328-48.16896-41.9328H177.6384c-24.61184 0-44.7744 18.25792-48.16896 41.9328h-0.69632V464.384h0.20992v35.05152c-0.03072 0.70656-0.20992 1.37216-0.20992 2.08896v267.39712c0 0.7168 0.1792 1.3824 0.20992 2.08896v4.84352h0.4864c3.39456 23.67488 23.55712 41.9328 48.16896 41.9328h679.76192c24.61184 0 44.7744-18.25792 48.16896-41.9328h0.70144V456.52992h-0.20992V421.4784c0.0256-0.70656 0.2048-1.37216 0.2048-2.08896z" fill="#3BCDAE" /><path d="M1001.46176 819.1232a42.70592 42.70592 0 0 0-42.7008-42.55232H65.23904c-23.53664 0-42.60864 19.04128-42.7008 42.55232h978.92352z" fill="#FCE38A" /><path d="M340.92544 778.27072c-0.01536-23.51616-2.90304-42.55232-6.46144-42.55232H199.2192c-3.56352 0-6.4512 19.04128-6.46144 42.55232h148.16768z" fill="#FFFFFF" /><path d="M1001.46176 817.93024a42.70592 42.70592 0 0 1-42.7008 42.55232H65.23904c-23.53664 0-42.60864-19.04128-42.7008-42.55232h978.92352z" fill="#EEDBC3" /><path d="M420.72064 604.91264h-38.58944V475.24864h-14.89408v-25.48224c4.86912 0 9.4464-2.35008 13.72672-7.05536 4.28032-4.71552 6.42048-9.50272 6.42048-14.3872h33.34144v176.5888zM562.24256 515.88096h-34.30912v34.30912h-20.18816v-34.30912H473.4464v-20.1728h34.29888v-34.30912h20.18816v34.30912h34.30912v20.1728zM666.1632 604.91264h-38.58944V475.24864h-14.89408v-25.48224c4.86912 0 9.4464-2.35008 13.72672-7.05536 4.28032-4.71552 6.42048-9.50272 6.42048-14.3872h33.34144v176.5888z" fill="#FFFFFF" /></svg>