<?xml version="1.0" encoding="utf-8"?>
<!-- Uploaded to: SVG Repo, www.svgrepo.com, Generator: SVG Repo Mixer Tools -->
<svg width="800px" height="800px" viewBox="0 0 1024 1024" class="icon"  version="1.1" xmlns="http://www.w3.org/2000/svg"><path d="M426.666667 896H213.333333c-46.933333 0-85.333333-38.4-85.333333-85.333333V320c0-106.666667 85.333333-192 192-192s192 85.333333 192 192v490.666667c0 46.933333-38.4 85.333333-85.333333 85.333333z" fill="#607D8B" /><path d="M320 320m-149.333333 0a149.333333 149.333333 0 1 0 298.666666 0 149.333333 149.333333 0 1 0-298.666666 0Z" fill="#455A64" /><path d="M320 320m-110.933333 0a110.933333 110.933333 0 1 0 221.866666 0 110.933333 110.933333 0 1 0-221.866666 0Z" fill="#42A5F5" /><path d="M390.4 277.333333c-17.066667-19.2-42.666667-32-70.4-32s-51.2 10.666667-70.4 32c-6.4 8.533333-6.4 19.2 2.133333 25.6 8.533333 6.4 19.2 6.4 25.6-2.133333 21.333333-25.6 61.866667-25.6 83.2 0 4.266667 4.266667 8.533333 6.4 14.933334 6.4 4.266667 0 8.533333-2.133333 12.8-4.266667 8.533333-6.4 8.533333-19.2 2.133333-25.6z" fill="#90CAF9" /><path d="M853.333333 661.333333H597.333333c-23.466667 0-42.666667-19.2-42.666666-42.666666V405.333333c0-23.466667 19.2-42.666667 42.666666-42.666666h256c23.466667 0 42.666667 19.2 42.666667 42.666666v213.333334c0 23.466667-19.2 42.666667-42.666667 42.666666z" fill="#607D8B" /><path d="M512 405.333333h42.666667v213.333334h-42.666667z" fill="#455A64" /><path d="M597.333333 405.333333h256v213.333334H597.333333z" fill="#03A9F4" /><path d="M704 473.6L618.666667 597.333333h170.666666z" fill="#4FC3F7" /><path d="M800 458.666667m-21.333333 0a21.333333 21.333333 0 1 0 42.666666 0 21.333333 21.333333 0 1 0-42.666666 0Z" fill="#B3E5FC" /><path d="M768 516.266667L704 597.333333h128z" fill="#B3E5FC" /><path d="M320 746.666667m-64 0a64 64 0 1 0 128 0 64 64 0 1 0-128 0Z" fill="#455A64" /><path d="M320 746.666667m-42.666667 0a42.666667 42.666667 0 1 0 85.333334 0 42.666667 42.666667 0 1 0-85.333334 0Z" fill="#F44336" /></svg>