<?xml version="1.0" encoding="utf-8"?>
<!-- Uploaded to: SVG Repo, www.svgrepo.com, Generator: SVG Repo Mixer Tools -->
<svg width="800px" height="800px" viewBox="0 0 1024 1024" class="icon"  version="1.1" xmlns="http://www.w3.org/2000/svg"><path d="M576 170.666667h213.333333v85.333333H576z" fill="#37474F" /><path d="M576 170.666667h-206.933333c-32 0-59.733333 17.066667-74.666667 44.8l-70.4 128L298.666667 384l70.4-128H576v153.6h85.333333V256c0-46.933333-38.4-85.333333-85.333333-85.333333z" fill="#607D8B" /><path d="M640 853.333333H128c-46.933333 0-85.333333-38.4-85.333333-85.333333V426.666667c0-46.933333 38.4-85.333333 85.333333-85.333334h512c46.933333 0 85.333333 38.4 85.333333 85.333334v341.333333c0 46.933333-38.4 85.333333-85.333333 85.333333zM810.666667 746.666667l106.666666 106.666666h64V384h-64l-106.666666 106.666667v256z" fill="#607D8B" /><path d="M469.333333 746.666667H170.666667c-23.466667 0-42.666667-19.2-42.666667-42.666667V490.666667c0-23.466667 19.2-42.666667 42.666667-42.666667h298.666666c23.466667 0 42.666667 19.2 42.666667 42.666667v213.333333c0 23.466667-19.2 42.666667-42.666667 42.666667z" fill="#546E7A" /><path d="M725.333333 490.666667h85.333334v256h-85.333334z" fill="#455A64" /><path d="M874.666667 277.333333h-85.333334c-12.8 0-21.333333-8.533333-21.333333-21.333333V170.666667c0-12.8 8.533333-21.333333 21.333333-21.333334h85.333334c36.266667 0 64 27.733333 64 64s-27.733333 64-64 64z" fill="#263238" /><path d="M170.666667 490.666667h298.666666v213.333333H170.666667z" fill="#03A9F4" /><path d="M288 544L192 682.666667h192z" fill="#4FC3F7" /><path d="M416 544m-32 0a32 32 0 1 0 64 0 32 32 0 1 0-64 0Z" fill="#B3E5FC" /><path d="M373.333333 588.8L298.666667 682.666667h149.333333z" fill="#B3E5FC" /></svg>