<?xml version="1.0" encoding="utf-8"?><!-- Uploaded to: SVG Repo, www.svgrepo.com, Generator: SVG Repo Mixer Tools -->
<svg width="800px" height="800px" viewBox="0 0 48 48" xmlns="http://www.w3.org/2000/svg"><title>70 Basic icons by Xicons.co</title><path d="M42.5,12H34L32.46,7.37A2,2,0,0,0,30.56,6H17.44a2,2,0,0,0-1.9,1.37L14,12H5.5a4,4,0,0,0-4,4V38a4,4,0,0,0,4,4h37a4,4,0,0,0,4-4V16A4,4,0,0,0,42.5,12Z" fill="#4a7082"/><path d="M41,18H39.08a2,2,0,0,0-2,1.35A2,2,0,0,0,39,22h1.92a2,2,0,0,0,2-1.35A2,2,0,0,0,41,18Z" fill="#f9d74a"/><path d="M25.7,18.14a10,10,0,1,0,8.16,8.16A10,10,0,0,0,25.7,18.14Z" fill="#aedff5"/><circle cx="24" cy="28" r="6" fill="#38b1e7"/><rect x="19" y="9" width="10" height="4" rx="1" ry="1" fill="#e7e9e9"/></svg>