<?xml version="1.0" encoding="utf-8"?>
<!-- Uploaded to: SVG Repo, www.svgrepo.com, Generator: SVG Repo Mixer Tools -->
<svg width="800px" height="800px" viewBox="0 0 1024 1024" class="icon"  version="1.1" xmlns="http://www.w3.org/2000/svg"><path d="M128 213.333333v597.333334c0 46.933333 38.4 85.333333 85.333333 85.333333h597.333334c46.933333 0 85.333333-38.4 85.333333-85.333333V213.333333c0-46.933333-38.4-85.333333-85.333333-85.333333H213.333333c-46.933333 0-85.333333 38.4-85.333333 85.333333z" fill="#FF5722" /><path d="M128 746.666667h768v42.666666H128zM128 661.333333h768v42.666667H128zM130.133333 832c4.266667 17.066667 12.8 32 25.6 42.666667h708.266667c12.8-10.666667 21.333333-25.6 25.6-42.666667H130.133333zM130.133333 192h761.6c-4.266667-17.066667-12.8-32-25.6-42.666667H157.866667c-12.8 10.666667-23.466667 25.6-27.733334 42.666667zM128 490.666667h768v42.666666H128zM128 576h768v42.666667H128zM128 320h768v42.666667H128zM128 234.666667h768v42.666666H128zM128 405.333333h768v42.666667H128z" fill="#BF360C" /><path d="M576 128h42.666667v106.666667h-42.666667zM576 277.333333h42.666667v128h-42.666667zM576 618.666667h42.666667v128h-42.666667zM661.333333 128h42.666667v21.333333h-42.666667zM405.333333 618.666667h42.666667v128h-42.666667zM661.333333 192h42.666667v128h-42.666667zM490.666667 128h42.666666v21.333333h-42.666666zM490.666667 533.333333h42.666666v128h-42.666666zM490.666667 192h42.666666v128h-42.666666zM405.333333 448h42.666667v128h-42.666667zM490.666667 362.666667h42.666666v128h-42.666666zM490.666667 704h42.666666v128h-42.666666zM576 448h42.666667v128h-42.666667zM832 704h42.666667v128h-42.666667zM832 362.666667h42.666667v128h-42.666667zM832 533.333333h42.666667v128h-42.666667zM832 130.133333V149.333333h34.133333c-8.533333-8.533333-21.333333-14.933333-34.133333-19.2zM661.333333 362.666667h42.666667v128h-42.666667zM866.133333 874.666667H832v19.2c12.8-4.266667 25.6-10.666667 34.133333-19.2zM746.666667 277.333333h42.666666v128h-42.666666zM661.333333 704h42.666667v128h-42.666667zM746.666667 618.666667h42.666666v128h-42.666666zM832 192h42.666667v128h-42.666667zM746.666667 448h42.666666v128h-42.666666zM661.333333 533.333333h42.666667v128h-42.666667zM746.666667 789.333333h42.666666v106.666667h-42.666666zM746.666667 128h42.666666v106.666667h-42.666666zM661.333333 874.666667h42.666667v21.333333h-42.666667zM490.666667 874.666667h42.666666v21.333333h-42.666666zM576 789.333333h42.666667v106.666667h-42.666667zM405.333333 789.333333h42.666667v106.666667h-42.666667zM149.333333 362.666667h42.666667v128H149.333333zM192 874.666667H157.866667c10.666667 8.533333 21.333333 14.933333 34.133333 19.2V874.666667zM157.866667 149.333333H192v-19.2c-12.8 4.266667-25.6 10.666667-34.133333 19.2zM149.333333 704h42.666667v128H149.333333zM149.333333 533.333333h42.666667v128H149.333333zM149.333333 192h42.666667v128H149.333333zM234.666667 618.666667h42.666666v128h-42.666666zM320 362.666667h42.666667v128h-42.666667zM320 704h42.666667v128h-42.666667zM320 192h42.666667v128h-42.666667zM320 128h42.666667v21.333333h-42.666667zM405.333333 128h42.666667v106.666667h-42.666667zM320 533.333333h42.666667v128h-42.666667zM320 874.666667h42.666667v21.333333h-42.666667zM234.666667 448h42.666666v128h-42.666666zM234.666667 128h42.666666v106.666667h-42.666666zM234.666667 789.333333h42.666666v106.666667h-42.666666zM405.333333 277.333333h42.666667v128h-42.666667zM234.666667 277.333333h42.666666v128h-42.666666z" fill="#FF8A65" /></svg>