<?xml version="1.0" encoding="iso-8859-1"?>

<!DOCTYPE svg PUBLIC "-//W3C//DTD SVG 1.1//EN" "http://www.w3.org/Graphics/SVG/1.1/DTD/svg11.dtd">
<!-- Uploaded to: SVG Repo, www.svgrepo.com, Generator: SVG Repo Mixer Tools -->
<svg version="1.1" id="_x35_" xmlns="http://www.w3.org/2000/svg" xmlns:xlink="http://www.w3.org/1999/xlink" 
	 viewBox="0 0 512 512"  xml:space="preserve">
<g>
	<path style="fill:#C2A770;" d="M441.853,393.794H70.147C31.566,393.794,0,362.228,0,323.647V106.969
		c0-38.581,31.566-70.147,70.147-70.147h371.706c38.581,0,70.147,31.566,70.147,70.147v216.678
		C512,362.228,480.434,393.794,441.853,393.794z"/>
	<path style="fill:#C2A770;" d="M199.884,249.573H70.147C31.566,249.573,0,218.007,0,179.426V70.147C0,31.566,31.566,0,70.147,0
		h129.737c38.581,0,70.147,31.566,70.147,70.147v109.28C270.031,218.007,238.464,249.573,199.884,249.573z"/>
	<polygon style="fill:#F0EFEF;" points="485.439,329.387 87.358,347.774 78.653,130.094 476.734,111.709 	"/>
	<defs>
		<filter id="Adobe_OpacityMaskFilter" filterUnits="userSpaceOnUse" x="34.381" y="60.216" width="416.68" height="259.557">
			<feFlood  style="flood-color:white;flood-opacity:1" result="back"/>
			<feBlend  in="SourceGraphic" in2="back" mode="normal"/>
		</filter>
	</defs>
	<mask maskUnits="userSpaceOnUse" x="34.381" y="60.216" width="416.68" height="259.557" id="SVGID_1_">
		<g style="filter:url(#Adobe_OpacityMaskFilter);">
			<defs>
				<filter id="Adobe_OpacityMaskFilter_1_" filterUnits="userSpaceOnUse" x="34.381" y="60.216" width="416.68" height="259.557">
					<feFlood  style="flood-color:white;flood-opacity:1" result="back"/>
					<feBlend  in="SourceGraphic" in2="back" mode="normal"/>
				</filter>
			</defs>
			<mask maskUnits="userSpaceOnUse" x="34.381" y="60.216" width="416.68" height="259.557" id="SVGID_1_">
				<g style="filter:url(#Adobe_OpacityMaskFilter_1_);">
				</g>
			</mask>
			<linearGradient id="SVGID_2_" gradientUnits="userSpaceOnUse" x1="34.3813" y1="189.9941" x2="451.061" y2="189.9941">
				<stop  offset="0.57" style="stop-color:#F6F6F6"/>
				<stop  offset="0.6039" style="stop-color:#F6F6F6"/>
			</linearGradient>
			<polygon style="mask:url(#SVGID_1_);fill:url(#SVGID_2_);" points="451.061,277.073 54.598,319.772 34.381,102.916 
				430.845,60.216 			"/>
		</g>
	</mask>
	<linearGradient id="SVGID_3_" gradientUnits="userSpaceOnUse" x1="34.3813" y1="189.9941" x2="451.061" y2="189.9941">
		<stop  offset="0.57" style="stop-color:#FFFFFF"/>
		<stop  offset="0.6039" style="stop-color:#F0F0F0"/>
	</linearGradient>
	<polygon style="fill:url(#SVGID_3_);" points="451.061,277.073 54.598,319.772 34.381,102.916 430.845,60.216 	"/>
	<path style="fill:#C97170;" d="M441.853,417.32H70.147C31.566,417.32,0,385.754,0,347.173V168.515h512v178.658
		C512,385.754,480.434,417.32,441.853,417.32z"/>
	<path style="fill:#C2A770;" d="M441.853,429.594H70.147C31.566,429.594,0,398.028,0,359.447V189.995h512v169.452
		C512,398.028,480.434,429.594,441.853,429.594z"/>
	<g>
		<g>
			<path style="fill:#FDEFD5;" d="M41.051,330.32h28.918h7.581c0.685,0,1.357,0,2.012,0c0.655,0,1.171,0.126,1.545,0.375
				c0.499,0.312,0.795,0.764,0.888,1.357c0.094,0.594,0.141,1.296,0.141,2.106c0,0.312,0.014,0.608,0.047,0.888
				c0.03,0.281-0.016,0.547-0.141,0.796c-0.249,0.998-0.796,1.543-1.637,1.637c-0.843,0.094-1.888,0.14-3.135,0.14h-9.733H53.779
				c-0.999,0-2.059-0.015-3.183-0.047c-1.122-0.03-1.965,0.173-2.526,0.608c-0.562,0.375-0.857,1.03-0.889,1.965
				c-0.032,0.937-0.047,1.873-0.047,2.808v9.265c0,0.5-0.016,1.123-0.046,1.872c-0.033,0.749,0.014,1.373,0.139,1.871v0.748
				c0.125,0.375,0.235,0.735,0.327,1.077c0.094,0.344,0.296,0.608,0.608,0.796c0.563,0.374,1.436,0.547,2.621,0.514
				c1.185-0.03,2.214-0.047,3.089-0.047h16.845c0.561,0,1.17-0.014,1.825-0.046c0.655-0.031,1.309-0.031,1.965,0
				c0.655,0.032,1.248,0.109,1.778,0.234c0.53,0.125,0.889,0.344,1.076,0.655c0.311,0.375,0.468,0.843,0.468,1.405
				c0,0.56,0,1.185,0,1.871c0,0.375,0,0.719,0,1.03c0,0.313-0.062,0.594-0.187,0.843c-0.249,0.625-0.594,0.969-1.029,1.03
				c-0.25,0.125-0.486,0.186-0.702,0.186c-0.22,0-0.483,0.034-0.796,0.094c-0.25,0.063-0.514,0.079-0.796,0.047
				c-0.281-0.03-0.546-0.047-0.795-0.047H70.25H54.434c-0.999,0-2.168-0.014-3.51-0.047c-1.342-0.03-2.293,0.172-2.854,0.609
				c-0.313,0.25-0.546,0.64-0.701,1.169c-0.156,0.531-0.25,1.14-0.281,1.825c-0.033,0.687-0.033,1.389,0,2.106
				c0.03,0.717,0.046,1.357,0.046,1.918v16.096c0,1.062,0.031,2.217,0.093,3.463c0.062,1.249-0.156,2.185-0.655,2.807
				c-0.187,0.25-0.468,0.391-0.842,0.422c-0.374,0.032-0.749,0.109-1.123,0.234h-1.779c-0.874,0-1.684-0.03-2.433-0.093
				c-0.749-0.062-1.28-0.375-1.591-0.937c-0.249-0.374-0.374-0.889-0.374-1.543c0-0.655,0-1.326,0-2.013v-7.488v-39.118v-10.107
				c0-0.686-0.016-1.45-0.047-2.292c-0.032-0.842,0.108-1.512,0.421-2.012c0.249-0.374,0.716-0.685,1.404-0.935
				c0.124-0.062,0.263-0.077,0.42-0.047C40.786,330.399,40.925,330.383,41.051,330.32z"/>
			<path style="fill:#FDEFD5;" d="M96.896,330.507c0.436,0,0.935-0.014,1.496-0.046c0.563-0.032,1.108-0.032,1.639,0
				c0.529,0.032,1.012,0.109,1.449,0.234c0.437,0.126,0.749,0.312,0.937,0.561c0.375,0.438,0.577,1.046,0.608,1.825
				c0.031,0.78,0.048,1.576,0.048,2.386v9.079v36.124v10.949c0,0.811,0,1.669,0,2.574c0,0.905-0.157,1.606-0.468,2.105
				c-0.25,0.314-0.547,0.5-0.888,0.563c-0.345,0.062-0.765,0.156-1.264,0.281h-1.777c-0.874,0-1.685-0.034-2.433-0.094
				c-0.749-0.061-1.28-0.374-1.592-0.935c-0.249-0.374-0.374-0.89-0.374-1.545s0-1.325,0-2.012v-7.487V345.95v-10.107
				c0-0.686-0.016-1.451-0.046-2.292c-0.033-0.843,0.108-1.514,0.42-2.013c0.249-0.436,0.749-0.748,1.498-0.936
				c0.125-0.061,0.249-0.077,0.375-0.047C96.645,330.587,96.77,330.57,96.896,330.507z"/>
			<path style="fill:#FDEFD5;" d="M126.094,330.32c0.436,0,0.935-0.015,1.498-0.047c0.561-0.03,1.107-0.03,1.637,0
				c0.529,0.032,1.012,0.109,1.451,0.234c0.436,0.126,0.747,0.313,0.935,0.562c0.375,0.5,0.561,1.155,0.561,1.965
				c0,0.811,0,1.654,0,2.528v9.826v30.042v8.609c0,0.687,0,1.436,0,2.246c0,0.813,0.094,1.468,0.281,1.966
				c0.188,0.436,0.529,0.811,1.03,1.122c0.313,0.125,0.717,0.203,1.217,0.235c0.499,0.032,0.998,0.046,1.497,0.046h4.773h16.845
				h5.24c0.436,0,0.889-0.014,1.358-0.046c0.468-0.032,0.889,0.016,1.263,0.139c0.81,0.25,1.341,0.594,1.59,1.03
				c0.062,0.188,0.125,0.5,0.189,0.937c0.061,0.436,0.108,0.889,0.139,1.357c0.03,0.467,0.015,0.935-0.048,1.402
				c-0.062,0.469-0.125,0.829-0.186,1.077c-0.126,0.437-0.406,0.782-0.843,1.029c-0.312,0.25-0.765,0.375-1.357,0.375
				c-0.593,0-1.169,0-1.732,0h-6.176H133.58h-6.083c-0.874,0-1.623-0.048-2.246-0.14c-0.625-0.094-1.092-0.39-1.405-0.89
				c-0.249-0.374-0.372-0.857-0.372-1.451c0-0.591,0-1.168,0-1.729v-6.74v-25.549v-20.308v-5.802c0-0.561,0.013-1.122,0.045-1.684
				c0.032-0.561,0.141-0.998,0.327-1.31c0.249-0.374,0.718-0.685,1.405-0.935c0.124-0.062,0.265-0.077,0.421-0.047
				C125.827,330.399,125.968,330.383,126.094,330.32z"/>
			<path style="fill:#FDEFD5;" d="M187.882,330.32h30.603h8.049c0.685,0,1.372-0.015,2.059-0.047
				c0.686-0.03,1.248,0.109,1.685,0.422c0.188,0.126,0.342,0.281,0.468,0.467c0.124,0.188,0.249,0.375,0.374,0.563
				c0.125,0.436,0.186,1.138,0.186,2.105c0,0.967-0.061,1.701-0.186,2.199c-0.25,0.875-0.781,1.357-1.592,1.451
				c-0.811,0.094-1.777,0.14-2.901,0.14h-9.358h-15.722c-0.999,0-2.169-0.015-3.51-0.047c-1.343-0.03-2.326,0.14-2.949,0.514
				c-0.624,0.374-0.951,1.03-0.983,1.966c-0.031,0.936-0.047,1.904-0.047,2.901v9.546c0,0.688-0.016,1.498-0.046,2.433
				c-0.033,0.937,0.014,1.686,0.14,2.246c0.188,0.749,0.562,1.249,1.123,1.498c0.249,0.125,0.685,0.25,1.31,0.373h0.935
				c0.249,0.063,0.515,0.08,0.796,0.047c0.281-0.03,0.576-0.047,0.89-0.047h3.181h18.343c0.56,0,1.184-0.014,1.872-0.046
				c0.685-0.031,1.387-0.031,2.104,0c0.717,0.032,1.372,0.093,1.967,0.187c0.591,0.094,1.043,0.233,1.357,0.421
				c0.186,0.126,0.341,0.407,0.467,0.842c0.125,0.438,0.218,0.905,0.281,1.404c0.062,0.5,0.078,1.016,0.046,1.545
				c-0.032,0.531-0.109,0.983-0.234,1.357c-0.126,0.561-0.406,0.967-0.841,1.217c-0.127,0.125-0.297,0.203-0.515,0.235
				c-0.22,0.032-0.422,0.079-0.609,0.14h-0.562c-0.313,0.063-0.624,0.079-0.935,0.047c-0.313-0.03-0.625-0.047-0.936-0.047h-3.462
				h-19.747c-0.748,0-1.483-0.014-2.199-0.047c-0.719-0.03-1.39,0-2.012,0.094c-0.625,0.094-1.171,0.267-1.639,0.515
				c-0.467,0.25-0.794,0.687-0.982,1.31c-0.126,0.375-0.173,0.811-0.14,1.31c0.03,0.5,0.046,0.999,0.046,1.498v5.239v8.892
				c0,0.873,0.032,1.669,0.094,2.386c0.062,0.718,0.312,1.233,0.748,1.544c0.436,0.313,0.936,0.483,1.498,0.515
				c0.561,0.032,1.185,0.046,1.871,0.046h5.99h17.314h5.333c0.499,0,0.998-0.014,1.498-0.046c0.497-0.032,0.935,0.016,1.31,0.139
				c0.749,0.25,1.248,0.594,1.498,1.03c0.122,0.188,0.217,0.5,0.28,0.937c0.062,0.436,0.108,0.889,0.14,1.357
				c0.03,0.467,0.015,0.935-0.048,1.402c-0.062,0.469-0.126,0.829-0.186,1.077c-0.25,0.5-0.531,0.842-0.843,1.029
				c-0.375,0.25-0.858,0.375-1.45,0.375c-0.595,0-1.171,0-1.732,0h-6.551h-24.894h-6.551c-0.875,0-1.624-0.048-2.246-0.14
				c-0.624-0.094-1.093-0.39-1.404-0.89c-0.25-0.374-0.375-0.857-0.375-1.451c0-0.591,0-1.168,0-1.729v-6.551V361.11v-20.964v-5.802
				c0-0.561,0-1.122,0-1.684c0-0.561,0.125-0.998,0.375-1.31c0.249-0.435,0.715-0.749,1.404-0.935
				c0.125-0.062,0.248-0.077,0.374-0.047C187.632,330.399,187.757,330.383,187.882,330.32z"/>
		</g>
		<g>
			<path style="fill:#D8C39D;" d="M41.051,330.32h28.918h7.581c0.685,0,1.357,0,2.012,0c0.655,0,1.171,0.126,1.545,0.375
				c0.499,0.312,0.795,0.764,0.888,1.357c0.094,0.594,0.141,1.296,0.141,2.106c0,0.312,0.014,0.608,0.047,0.888
				c0.03,0.281-0.016,0.547-0.141,0.796c-0.249,0.998-0.796,1.543-1.637,1.637c-0.843,0.094-1.888,0.14-3.135,0.14h-9.733H53.779
				c-0.999,0-2.059-0.015-3.183-0.047c-1.122-0.03-1.965,0.173-2.526,0.608c-0.562,0.375-0.857,1.03-0.889,1.965
				c-0.032,0.937-0.047,1.873-0.047,2.808v9.265c0,0.5-0.016,1.123-0.046,1.872c-0.033,0.749,0.014,1.373,0.139,1.871v0.748
				c0.125,0.375,0.235,0.735,0.327,1.077c0.094,0.344,0.296,0.608,0.608,0.796c0.563,0.374,1.436,0.547,2.621,0.514
				c1.185-0.03,2.214-0.047,3.089-0.047h16.845c0.561,0,1.17-0.014,1.825-0.046c0.655-0.031,1.309-0.031,1.965,0
				c0.655,0.032,1.248,0.109,1.778,0.234c0.53,0.125,0.889,0.344,1.076,0.655c0.311,0.375,0.468,0.843,0.468,1.405
				c0,0.56,0,1.185,0,1.871c0,0.375,0,0.719,0,1.03c0,0.313-0.062,0.594-0.187,0.843c-0.249,0.625-0.594,0.969-1.029,1.03
				c-0.25,0.125-0.486,0.186-0.702,0.186c-0.22,0-0.483,0.034-0.796,0.094c-0.25,0.063-0.514,0.079-0.796,0.047
				c-0.281-0.03-0.546-0.047-0.795-0.047H70.25H54.434c-0.999,0-2.168-0.014-3.51-0.047c-1.342-0.03-2.293,0.172-2.854,0.609
				c-0.313,0.25-0.546,0.64-0.701,1.169c-0.156,0.531-0.25,1.14-0.281,1.825c-0.033,0.687-0.033,1.389,0,2.106
				c0.03,0.717,0.046,1.357,0.046,1.918v16.096c0,1.062,0.031,2.217,0.093,3.463c0.062,1.249-0.156,2.185-0.655,2.807
				c-0.187,0.25-0.468,0.391-0.842,0.422c-0.374,0.032-0.749,0.109-1.123,0.234h-1.779c-0.874,0-1.684-0.03-2.433-0.093
				c-0.749-0.062-1.28-0.375-1.591-0.937c-0.249-0.374-0.374-0.889-0.374-1.543c0-0.655,0-1.326,0-2.013v-7.488v-39.118v-10.107
				c0-0.686-0.016-1.45-0.047-2.292c-0.032-0.842,0.108-1.512,0.421-2.012c0.249-0.374,0.716-0.685,1.404-0.935
				c0.124-0.062,0.263-0.077,0.42-0.047C40.786,330.399,40.925,330.383,41.051,330.32z"/>
			<path style="fill:#D8C39D;" d="M96.896,330.507c0.436,0,0.935-0.014,1.496-0.046c0.563-0.032,1.108-0.032,1.639,0
				c0.529,0.032,1.012,0.109,1.449,0.234c0.437,0.126,0.749,0.312,0.937,0.561c0.375,0.438,0.577,1.046,0.608,1.825
				c0.031,0.78,0.048,1.576,0.048,2.386v9.079v36.124v10.949c0,0.811,0,1.669,0,2.574c0,0.905-0.157,1.606-0.468,2.105
				c-0.25,0.314-0.547,0.5-0.888,0.563c-0.345,0.062-0.765,0.156-1.264,0.281h-1.777c-0.874,0-1.685-0.034-2.433-0.094
				c-0.749-0.061-1.28-0.374-1.592-0.935c-0.249-0.374-0.374-0.89-0.374-1.545s0-1.325,0-2.012v-7.487V345.95v-10.107
				c0-0.686-0.016-1.451-0.046-2.292c-0.033-0.843,0.108-1.514,0.42-2.013c0.249-0.436,0.749-0.748,1.498-0.936
				c0.125-0.061,0.249-0.077,0.375-0.047C96.645,330.587,96.77,330.57,96.896,330.507z"/>
			<path style="fill:#D8C39D;" d="M126.094,330.32c0.436,0,0.935-0.015,1.498-0.047c0.561-0.03,1.107-0.03,1.637,0
				c0.529,0.032,1.012,0.109,1.451,0.234c0.436,0.126,0.747,0.313,0.935,0.562c0.375,0.5,0.561,1.155,0.561,1.965
				c0,0.811,0,1.654,0,2.528v9.826v30.042v8.609c0,0.687,0,1.436,0,2.246c0,0.813,0.094,1.468,0.281,1.966
				c0.188,0.436,0.529,0.811,1.03,1.122c0.313,0.125,0.717,0.203,1.217,0.235c0.499,0.032,0.998,0.046,1.497,0.046h4.773h16.845
				h5.24c0.436,0,0.889-0.014,1.358-0.046c0.468-0.032,0.889,0.016,1.263,0.139c0.81,0.25,1.341,0.594,1.59,1.03
				c0.062,0.188,0.125,0.5,0.189,0.937c0.061,0.436,0.108,0.889,0.139,1.357c0.03,0.467,0.015,0.935-0.048,1.402
				c-0.062,0.469-0.125,0.829-0.186,1.077c-0.126,0.437-0.406,0.782-0.843,1.029c-0.312,0.25-0.765,0.375-1.357,0.375
				c-0.593,0-1.169,0-1.732,0h-6.176H133.58h-6.083c-0.874,0-1.623-0.048-2.246-0.14c-0.625-0.094-1.092-0.39-1.405-0.89
				c-0.249-0.374-0.372-0.857-0.372-1.451c0-0.591,0-1.168,0-1.729v-6.74v-25.549v-20.308v-5.802c0-0.561,0.013-1.122,0.045-1.684
				c0.032-0.561,0.141-0.998,0.327-1.31c0.249-0.374,0.718-0.685,1.405-0.935c0.124-0.062,0.265-0.077,0.421-0.047
				C125.827,330.399,125.968,330.383,126.094,330.32z"/>
			<path style="fill:#D8C39D;" d="M187.882,330.32h30.603h8.049c0.685,0,1.372-0.015,2.059-0.047
				c0.686-0.03,1.248,0.109,1.685,0.422c0.188,0.126,0.342,0.281,0.468,0.467c0.124,0.188,0.249,0.375,0.374,0.563
				c0.125,0.436,0.186,1.138,0.186,2.105c0,0.967-0.061,1.701-0.186,2.199c-0.25,0.875-0.781,1.357-1.592,1.451
				c-0.811,0.094-1.777,0.14-2.901,0.14h-9.358h-15.722c-0.999,0-2.169-0.015-3.51-0.047c-1.343-0.03-2.326,0.14-2.949,0.514
				c-0.624,0.374-0.951,1.03-0.983,1.966c-0.031,0.936-0.047,1.904-0.047,2.901v9.546c0,0.688-0.016,1.498-0.046,2.433
				c-0.033,0.937,0.014,1.686,0.14,2.246c0.188,0.749,0.562,1.249,1.123,1.498c0.249,0.125,0.685,0.25,1.31,0.373h0.935
				c0.249,0.063,0.515,0.08,0.796,0.047c0.281-0.03,0.576-0.047,0.89-0.047h3.181h18.343c0.56,0,1.184-0.014,1.872-0.046
				c0.685-0.031,1.387-0.031,2.104,0c0.717,0.032,1.372,0.093,1.967,0.187c0.591,0.094,1.043,0.233,1.357,0.421
				c0.186,0.126,0.341,0.407,0.467,0.842c0.125,0.438,0.218,0.905,0.281,1.404c0.062,0.5,0.078,1.016,0.046,1.545
				c-0.032,0.531-0.109,0.983-0.234,1.357c-0.126,0.561-0.406,0.967-0.841,1.217c-0.127,0.125-0.297,0.203-0.515,0.235
				c-0.22,0.032-0.422,0.079-0.609,0.14h-0.562c-0.313,0.063-0.624,0.079-0.935,0.047c-0.313-0.03-0.625-0.047-0.936-0.047h-3.462
				h-19.747c-0.748,0-1.483-0.014-2.199-0.047c-0.719-0.03-1.39,0-2.012,0.094c-0.625,0.094-1.171,0.267-1.639,0.515
				c-0.467,0.25-0.794,0.687-0.982,1.31c-0.126,0.375-0.173,0.811-0.14,1.31c0.03,0.5,0.046,0.999,0.046,1.498v5.239v8.892
				c0,0.873,0.032,1.669,0.094,2.386c0.062,0.718,0.312,1.233,0.748,1.544c0.436,0.313,0.936,0.483,1.498,0.515
				c0.561,0.032,1.185,0.046,1.871,0.046h5.99h17.314h5.333c0.499,0,0.998-0.014,1.498-0.046c0.497-0.032,0.935,0.016,1.31,0.139
				c0.749,0.25,1.248,0.594,1.498,1.03c0.122,0.188,0.217,0.5,0.28,0.937c0.062,0.436,0.108,0.889,0.14,1.357
				c0.03,0.467,0.015,0.935-0.048,1.402c-0.062,0.469-0.126,0.829-0.186,1.077c-0.25,0.5-0.531,0.842-0.843,1.029
				c-0.375,0.25-0.858,0.375-1.45,0.375c-0.595,0-1.171,0-1.732,0h-6.551h-24.894h-6.551c-0.875,0-1.624-0.048-2.246-0.14
				c-0.624-0.094-1.093-0.39-1.404-0.89c-0.25-0.374-0.375-0.857-0.375-1.451c0-0.591,0-1.168,0-1.729v-6.551V361.11v-20.964v-5.802
				c0-0.561,0-1.122,0-1.684c0-0.561,0.125-0.998,0.375-1.31c0.249-0.435,0.715-0.749,1.404-0.935
				c0.125-0.062,0.248-0.077,0.374-0.047C187.632,330.399,187.757,330.383,187.882,330.32z"/>
		</g>
	</g>
	<polygon style="fill:#AB986B;" points="276.168,208.741 0,302.069 0,186.052 512,186.052 512,302.069 	"/>
</g>
</svg>