<?xml version="1.0" encoding="utf-8"?>
<!-- Uploaded to: SVG Repo, www.svgrepo.com, Generator: SVG Repo Mixer Tools -->
<svg width="800px" height="800px" viewBox="0 0 1024 1024" class="icon"  version="1.1" xmlns="http://www.w3.org/2000/svg"><path d="M149.333333 149.333333v725.333334h725.333334V149.333333H149.333333z m682.666667 170.666667h-128V192h128v128z m-298.666667 0V192h128v128h-128z m128 42.666667v128h-128v-128h128z m-170.666666-42.666667h-128V192h128v128z m0 42.666667v128h-128v-128h128z m-170.666667 128H192v-128h128v128z m0 42.666666v128H192v-128h128z m42.666667 0h128v128h-128v-128z m128 170.666667v128h-128v-128h128z m42.666666 0h128v128h-128v-128z m0-42.666667v-128h128v128h-128z m170.666667-128h128v128h-128v-128z m0-42.666666v-128h128v128h-128zM320 192v128H192V192h128zM192 704h128v128H192v-128z m512 128v-128h128v128h-128z" fill="#90CAF9" /></svg>