<?xml version="1.0" encoding="iso-8859-1"?>

<!DOCTYPE svg PUBLIC "-//W3C//DTD SVG 1.1//EN" "http://www.w3.org/Graphics/SVG/1.1/DTD/svg11.dtd">
<!-- Uploaded to: SVG Repo, www.svgrepo.com, Generator: SVG Repo Mixer Tools -->
<svg version="1.1" id="_x35_" xmlns="http://www.w3.org/2000/svg" xmlns:xlink="http://www.w3.org/1999/xlink" 
	 viewBox="0 0 512 512"  xml:space="preserve">
<g>
	<g>
		<polygon style="fill:#FFFFFF;" points="433.023,97.695 433.023,512 0,512 0,0.007 335.26,0.007 		"/>
		<rect x="41.105" y="72.326" style="fill:#B2D24D;" width="47.109" height="174.256"/>
		<rect x="117.281" y="150.359" style="fill:#BACBE3;" width="46.107" height="96.223"/>
		<rect x="193.458" y="92.372" style="fill:#EABA57;" width="46.107" height="154.209"/>
		<rect x="269.634" y="126.303" style="fill:#ED7575;" width="46.107" height="120.279"/>
		<rect x="345.811" y="178.424" style="fill:#77C38E;" width="46.107" height="68.158"/>
		<rect x="41.857" y="282.665" style="fill:#FADBDB;" width="349.309" height="30.765"/>
		<rect x="41.857" y="335.222" style="fill:#FADBDB;" width="349.309" height="30.765"/>
		<rect x="41.857" y="387.779" style="fill:#FADBDB;" width="349.309" height="30.765"/>
		<rect x="41.857" y="440.336" style="fill:#FADBDB;" width="349.309" height="30.765"/>
		<polygon style="fill:#EB6048;" points="433.013,97.726 335.286,97.726 335.286,0 		"/>
	</g>
	<polygon style="opacity:0.1;fill:#200204;" points="433.023,97.695 433.023,512 216.511,512 216.511,0.007 335.26,0.007 	"/>
</g>
</svg>