<?xml version="1.0" encoding="utf-8"?>
<!-- Uploaded to: SVG Repo, www.svgrepo.com, Generator: SVG Repo Mixer Tools -->
<svg width="800px" height="800px" viewBox="0 0 1024 1024" class="icon"  version="1.1" xmlns="http://www.w3.org/2000/svg"><path d="M810.666667 896H213.333333c-46.933333 0-85.333333-38.4-85.333333-85.333333V213.333333c0-46.933333 38.4-85.333333 85.333333-85.333333h597.333334c46.933333 0 85.333333 38.4 85.333333 85.333333v597.333334c0 46.933333-38.4 85.333333-85.333333 85.333333z" fill="#607D8B" /><path d="M512 512m-256 0a256 256 0 1 0 512 0 256 256 0 1 0-512 0Z" fill="#455A64" /><path d="M512 512m-192 0a192 192 0 1 0 384 0 192 192 0 1 0-384 0Z" fill="#42A5F5" /><path d="M614.4 448c-25.6-29.866667-64-46.933333-102.4-46.933333s-76.8 17.066667-102.4 46.933333c-10.666667 10.666667-8.533333 27.733333 2.133333 38.4s27.733333 8.533333 38.4-2.133333c32-36.266667 91.733333-36.266667 123.733334 0 6.4 6.4 12.8 8.533333 21.333333 8.533333 6.4 0 12.8-2.133333 19.2-6.4 8.533333-8.533333 10.666667-27.733333 0-38.4z" fill="#90CAF9" /></svg>