<?xml version="1.0" encoding="iso-8859-1"?>

<!DOCTYPE svg PUBLIC "-//W3C//DTD SVG 1.1//EN" "http://www.w3.org/Graphics/SVG/1.1/DTD/svg11.dtd">
<!-- Uploaded to: SVG Repo, www.svgrepo.com, Generator: SVG Repo Mixer Tools -->
<svg version="1.1" id="_x36_" xmlns="http://www.w3.org/2000/svg" xmlns:xlink="http://www.w3.org/1999/xlink" 
	 viewBox="0 0 512 512"  xml:space="preserve">
<g>
	<g>
		<path style="fill:#F0F0F0;" d="M395.832,12.264c0,0.259,0,0.519-0.086,0.778c-0.691,6.478-10.192,11.574-21.592,11.574
			c-11.401,0-20.902-5.096-21.592-11.574c-0.086-0.259-0.086-0.518-0.086-0.778c0-6.737,9.76-12.264,21.679-12.264
			C386.073,0,395.832,5.528,395.832,12.264z"/>
		<path style="fill:#F0F0F0;" d="M451.368,12.264c0,0.259,0,0.519-0.086,0.778c-0.691,6.478-10.192,11.574-21.592,11.574
			c-11.314,0-20.815-5.096-21.507-11.574c-0.086-0.259-0.086-0.518-0.086-0.778C408.097,5.528,417.857,0,429.69,0
			C441.609,0,451.368,5.528,451.368,12.264z"/>
		<path style="fill:#56B87D;" d="M512,39.989v444.373c0,14.769-12.092,26.947-26.947,26.947H26.947
			C12.092,511.309,0,499.132,0,484.362V39.989c0-14.855,12.092-26.947,26.947-26.947h458.105C499.908,13.042,512,25.134,512,39.989z
			"/>
		<path style="fill:#FFFFFF;" d="M413.366,104.767C371.304,62.705,315.422,39.557,256,39.557
			c-59.422,0-115.303,23.147-157.365,65.209c-42.062,42.062-65.209,97.944-65.209,157.366c0,59.508,23.147,115.39,65.209,157.452
			c42.062,41.976,97.943,65.123,157.365,65.123c59.422,0,115.304-23.147,157.366-65.123c42.062-42.062,65.209-97.944,65.209-157.452
			C478.575,202.71,455.428,146.829,413.366,104.767z M256,406.974c-79.806,0-144.755-64.95-144.755-144.842
			c0-79.806,64.95-144.756,144.755-144.756c79.806,0,144.756,64.95,144.756,144.756C400.756,342.025,335.806,406.974,256,406.974z"
			/>
		<g>
			<g>
				<polygon style="fill:#F0F0F0;" points="179.657,225.821 244.533,263.277 179.657,300.733 				"/>
			</g>
			<g>
				<rect x="275.28" y="233.372" style="fill:#F0F0F0;" width="25.551" height="59.81"/>
				<rect x="312.751" y="233.372" style="fill:#F0F0F0;" width="25.551" height="59.81"/>
			</g>
		</g>
		<g>
			<g>
				<polygon style="fill:#F0F0F0;" points="410.203,249.639 431.895,262.163 410.203,274.687 				"/>
			</g>
			<g>
				<polygon style="fill:#F0F0F0;" points="425.804,249.639 447.496,262.163 425.804,274.687 				"/>
			</g>
			<rect x="451.385" y="248.066" style="fill:#F0F0F0;" width="8.235" height="28.193"/>
		</g>
		<g>
			<g>
				<polygon style="fill:#F0F0F0;" points="95.52,249.639 73.827,262.163 95.52,274.687 				"/>
			</g>
			<g>
				<polygon style="fill:#F0F0F0;" points="79.919,249.639 58.227,262.163 79.919,274.687 				"/>
			</g>
			<rect x="46.102" y="248.066" style="fill:#F0F0F0;" width="8.235" height="28.193"/>
		</g>
		<g>
			<rect x="237.356" y="78.137" style="fill:#F0F0F0;" width="37.288" height="7.954"/>
			<rect x="252.023" y="63.47" style="fill:#F0F0F0;" width="7.954" height="37.288"/>
		</g>
		<g>
			<rect x="237.356" y="443.046" style="fill:#F0F0F0;" width="37.288" height="7.954"/>
		</g>
	</g>
	<g>
		<path style="fill:#F0F0F0;" d="M395.832,12.264c0,0.259,0,0.519-0.086,0.778c-0.691,6.478-10.192,11.574-21.592,11.574
			c-11.401,0-20.902-5.096-21.592-11.574c-0.086-0.259-0.086-0.518-0.086-0.778c0-6.737,9.76-12.264,21.679-12.264
			C386.073,0,395.832,5.528,395.832,12.264z"/>
		<path style="fill:#F0F0F0;" d="M451.368,12.264c0,0.259,0,0.519-0.086,0.778c-0.691,6.478-10.192,11.574-21.592,11.574
			c-11.314,0-20.815-5.096-21.507-11.574c-0.086-0.259-0.086-0.518-0.086-0.778C408.097,5.528,417.857,0,429.69,0
			C441.609,0,451.368,5.528,451.368,12.264z"/>
		<path style="fill:#B6BEC0;" d="M512,39.989v444.373c0,14.769-12.092,26.947-26.947,26.947H26.947
			C12.092,511.309,0,499.132,0,484.362V39.989c0-14.855,12.092-26.947,26.947-26.947h458.105C499.908,13.042,512,25.134,512,39.989z
			"/>
		<path style="fill:#FFFFFF;" d="M413.366,104.767C371.304,62.705,315.422,39.557,256,39.557
			c-59.422,0-115.303,23.147-157.365,65.209c-42.062,42.062-65.209,97.944-65.209,157.366c0,59.508,23.147,115.39,65.209,157.452
			c42.062,41.976,97.943,65.123,157.365,65.123c59.422,0,115.304-23.147,157.366-65.123c42.062-42.062,65.209-97.944,65.209-157.452
			C478.575,202.71,455.428,146.829,413.366,104.767z M256,406.974c-79.806,0-144.755-64.95-144.755-144.842
			c0-79.806,64.95-144.756,144.755-144.756c79.806,0,144.756,64.95,144.756,144.756C400.756,342.025,335.806,406.974,256,406.974z"
			/>
		<g>
			<g>
				<polygon style="fill:#F0F0F0;" points="179.657,225.821 244.533,263.277 179.657,300.733 				"/>
			</g>
			<g>
				<rect x="275.28" y="233.372" style="fill:#F0F0F0;" width="25.551" height="59.81"/>
				<rect x="312.751" y="233.372" style="fill:#F0F0F0;" width="25.551" height="59.81"/>
			</g>
		</g>
		<g>
			<g>
				<polygon style="fill:#F0F0F0;" points="410.203,249.639 431.895,262.163 410.203,274.687 				"/>
			</g>
			<g>
				<polygon style="fill:#F0F0F0;" points="425.804,249.639 447.496,262.163 425.804,274.687 				"/>
			</g>
			<rect x="451.385" y="248.066" style="fill:#F0F0F0;" width="8.235" height="28.193"/>
		</g>
		<g>
			<g>
				<polygon style="fill:#F0F0F0;" points="95.52,249.639 73.827,262.163 95.52,274.687 				"/>
			</g>
			<g>
				<polygon style="fill:#F0F0F0;" points="79.919,249.639 58.227,262.163 79.919,274.687 				"/>
			</g>
			<rect x="46.102" y="248.066" style="fill:#F0F0F0;" width="8.235" height="28.193"/>
		</g>
		<g>
			<rect x="237.356" y="78.137" style="fill:#F0F0F0;" width="37.288" height="7.954"/>
			<rect x="252.023" y="63.47" style="fill:#F0F0F0;" width="7.954" height="37.288"/>
		</g>
		<g>
			<rect x="237.356" y="443.046" style="fill:#F0F0F0;" width="37.288" height="7.954"/>
		</g>
	</g>
	<path style="opacity:0.06;fill:#040000;" d="M496.153,15.502L8.109,503.545c4.864,4.78,11.506,7.764,18.838,7.764h458.105
		c14.856,0,26.947-12.178,26.947-26.947V39.989C512,29.1,505.473,19.747,496.153,15.502z"/>
</g>
</svg>