<?xml version="1.0" encoding="utf-8"?>
<!-- Uploaded to: SVG Repo, www.svgrepo.com, Generator: SVG Repo Mixer Tools -->
<svg width="800px" height="800px" viewBox="0 0 1024 1024" class="icon"  version="1.1" xmlns="http://www.w3.org/2000/svg"><path d="M896 874.666667H256c-46.933333 0-85.333333-38.4-85.333333-85.333334V362.666667c0-46.933333 38.4-85.333333 85.333333-85.333334h640c46.933333 0 85.333333 38.4 85.333333 85.333334v426.666666c0 46.933333-38.4 85.333333-85.333333 85.333334z" fill="#455A64" /><path d="M768 768H128c-46.933333 0-85.333333-38.4-85.333333-85.333333V256c0-46.933333 38.4-85.333333 85.333333-85.333333h640c46.933333 0 85.333333 38.4 85.333333 85.333333v426.666667c0 46.933333-38.4 85.333333-85.333333 85.333333z" fill="#78909C" /><path d="M554.666667 469.333333m-213.333334 0a213.333333 213.333333 0 1 0 426.666667 0 213.333333 213.333333 0 1 0-426.666667 0Z" fill="#455A64" /><path d="M554.666667 469.333333m-149.333334 0a149.333333 149.333333 0 1 0 298.666667 0 149.333333 149.333333 0 1 0-298.666667 0Z" fill="#42A5F5" /><path d="M633.6 420.266667c-21.333333-23.466667-49.066667-36.266667-78.933333-36.266667s-59.733333 12.8-78.933334 36.266667c-8.533333 8.533333-6.4 21.333333 2.133334 29.866666 8.533333 8.533333 21.333333 6.4 29.866666-2.133333 25.6-27.733333 70.4-27.733333 96 0 4.266667 4.266667 10.666667 6.4 14.933334 6.4 4.266667 0 10.666667-2.133333 14.933333-6.4 8.533333-6.4 8.533333-19.2 0-27.733333z" fill="#90CAF9" /><path d="M128 256h128v64H128z" fill="#ADD8FB" /></svg>