<?xml version="1.0" encoding="iso-8859-1"?>

<!DOCTYPE svg PUBLIC "-//W3C//DTD SVG 1.1//EN" "http://www.w3.org/Graphics/SVG/1.1/DTD/svg11.dtd">
<!-- Uploaded to: SVG Repo, www.svgrepo.com, Generator: SVG Repo Mixer Tools -->
<svg version="1.1" id="_x36_" xmlns="http://www.w3.org/2000/svg" xmlns:xlink="http://www.w3.org/1999/xlink" 
	 viewBox="0 0 512 512"  xml:space="preserve">
<g>
	<g>
		<path style="fill:#AD529B;" d="M283.231,17.729v476.543c0,9.786-7.871,17.728-17.728,17.728H17.729C7.871,512,0,504.058,0,494.272
			V17.729C0,7.942,7.871,0,17.729,0h247.774C275.36,0,283.231,7.942,283.231,17.729z"/>
		<g>
			<path style="fill:#F0F0F0;" d="M210.473,288.266c-18.367-18.367-42.832-28.508-68.858-28.508
				c-26.025,0-50.491,10.141-68.857,28.508c-18.438,18.437-28.579,42.903-28.579,68.928c0,26.026,10.141,50.491,28.579,68.858
				c18.366,18.438,42.832,28.578,68.857,28.578c26.026,0,50.491-10.141,68.858-28.578c18.437-18.367,28.579-42.832,28.579-68.858
				C239.052,331.169,228.91,306.703,210.473,288.266z M141.615,404.352c-26.025,0-47.158-21.203-47.158-47.158
				c0-26.025,21.132-47.158,47.158-47.158c26.026,0,47.158,21.132,47.158,47.158C188.773,383.149,167.641,404.352,141.615,404.352z"
				/>
			<g>
				<g>
					<polygon style="fill:#A6AAAD;" points="124.684,419.451 139.072,427.758 124.684,436.065 					"/>
				</g>
				<g>
					<rect x="144.57" y="422.833" style="fill:#A6AAAD;" width="5.667" height="11.596"/>
					<rect x="152.88" y="422.833" style="fill:#A6AAAD;" width="5.667" height="11.596"/>
				</g>
			</g>
			<g>
				<g>
					<polygon style="fill:#A6AAAD;" points="198.459,350.594 209.854,357.173 198.459,363.752 					"/>
				</g>
				<g>
					<polygon style="fill:#A6AAAD;" points="206.654,350.594 218.049,357.173 206.654,363.752 					"/>
				</g>
				<rect x="220.092" y="349.768" style="fill:#A6AAAD;" width="4.326" height="14.809"/>
			</g>
			<g>
				<g>
					<polygon style="fill:#A6AAAD;" points="82.509,350.594 71.114,357.173 82.509,363.752 					"/>
				</g>
				<g>
					<polygon style="fill:#A6AAAD;" points="74.314,350.594 62.919,357.173 74.314,363.752 					"/>
				</g>
				<rect x="56.55" y="349.768" style="fill:#A6AAAD;" width="4.326" height="14.809"/>
			</g>
			<g>
				<path style="fill:#A6AAAD;" d="M125.447,280.395l-3.759,8.013l-3.758-8.013h-2.837v14.75h2.837v-8.58l2.766,5.602h1.914
					l2.766-5.602v8.58h2.837v-14.75H125.447z"/>
				<path style="fill:#A6AAAD;" d="M140.906,282.948v-2.553h-9.503v14.75h9.503v-2.553h-6.737v-3.617h5.744v-2.553h-5.744v-3.475
					H140.906z"/>
				<path style="fill:#A6AAAD;" d="M151.685,280.395v9.077l-5.673-9.077h-2.553v14.75h2.837v-9.006l5.744,9.006h2.482v-14.75
					H151.685z"/>
				<path style="fill:#A6AAAD;" d="M165.301,280.395v9.644c0,0.851-0.213,1.489-0.638,1.985c-0.496,0.425-1.064,0.709-1.843,0.709
					c-0.78,0-1.418-0.284-1.844-0.709c-0.425-0.496-0.709-1.134-0.709-1.985v-9.644H157.5v9.715c0,0.78,0.141,1.489,0.354,2.127
					c0.284,0.638,0.709,1.205,1.205,1.631c0.425,0.426,0.993,0.78,1.631,1.064c0.638,0.212,1.347,0.354,2.128,0.354
					c0.709,0,1.418-0.142,2.056-0.354c0.638-0.284,1.205-0.638,1.702-1.064c0.496-0.426,0.851-0.993,1.135-1.631
					c0.283-0.638,0.425-1.347,0.425-2.127v-9.715H165.301z"/>
			</g>
		</g>
		<g>
			<path style="fill:#8F8F8F;" d="M243.441,37.293H39.789c-6.377,0-11.594,5.217-11.594,11.594v139.951
				c0,6.377,5.217,11.594,11.594,11.594h203.652c6.377,0,11.594-5.217,11.594-11.594V48.888
				C255.036,42.511,249.818,37.293,243.441,37.293z"/>
			<path style="fill:#E8EAE9;" d="M247.978,48.885v139.956c0,2.455-2.077,4.537-4.537,4.537H39.789c-2.46,0-4.537-2.082-4.537-4.537
				V48.885c0-2.46,2.077-4.537,4.537-4.537h203.652C245.901,44.349,247.978,46.425,247.978,48.885z"/>
			<path style="fill:#EAF4FB;" d="M247.978,53.024v22.992H35.252V49.023c0-2.535,2.077-4.674,4.537-4.674h203.652
				C245.901,44.349,247.978,46.488,247.978,53.024z"/>
			<g>
				<path style="fill:#999999;" d="M121.263,55.029v2.411h2.979v-2.411H121.263z M121.334,59.78v11.417h2.908V59.78H121.334z"/>
				<path style="fill:#999999;" d="M138.424,58.221c-0.284-0.638-0.567-1.135-1.064-1.631c-0.426-0.426-0.993-0.78-1.631-1.064
					c-0.638-0.284-1.347-0.426-2.198-0.426h-6.099v16.098h3.05V65.17h3.049c0.851,0,1.56-0.142,2.198-0.425
					c0.638-0.213,1.205-0.567,1.631-1.063c0.497-0.426,0.78-0.993,1.064-1.631c0.212-0.568,0.355-1.206,0.355-1.914
					C138.779,59.426,138.637,58.788,138.424,58.221z M135.091,61.766c-0.425,0.354-0.993,0.567-1.702,0.567h-2.907v-4.397h2.907
					c0.709,0,1.276,0.213,1.702,0.567c0.355,0.425,0.567,0.993,0.567,1.631C135.659,60.773,135.446,61.341,135.091,61.766z"/>
				<path style="fill:#999999;" d="M149.912,62.688c-0.142-0.709-0.496-1.347-0.993-1.915c-0.354-0.425-0.851-0.78-1.418-1.064
					c-0.638-0.283-1.347-0.425-2.198-0.425c-0.851,0-1.56,0.142-2.127,0.425c-0.567,0.284-1.064,0.638-1.418,1.064
					c-0.568,0.568-0.851,1.206-1.064,1.915c-0.142,0.709-0.283,1.56-0.283,2.624c0,1.063,0.142,1.985,0.283,2.695
					c0.213,0.709,0.496,1.347,1.064,1.914c0.354,0.425,0.851,0.709,1.418,0.993c0.568,0.284,1.276,0.425,2.127,0.425
					c0.851,0,1.56-0.142,2.198-0.425c0.567-0.284,1.064-0.567,1.418-0.993c0.496-0.567,0.851-1.205,1.064-1.914
					c0.142-0.709,0.213-1.631,0.213-2.695C150.196,64.248,150.125,63.397,149.912,62.688z M147.218,67.014
					c-0.071,0.496-0.284,0.851-0.567,1.205c-0.354,0.354-0.78,0.496-1.347,0.496c-0.568,0-0.993-0.142-1.347-0.496
					c-0.283-0.354-0.426-0.709-0.568-1.205c-0.07-0.496-0.07-1.064-0.07-1.702c0-0.568,0-1.135,0.07-1.631
					c0.142-0.496,0.284-0.922,0.568-1.206c0.354-0.354,0.78-0.496,1.347-0.496c0.567,0,0.993,0.142,1.347,0.496
					c0.283,0.284,0.496,0.709,0.567,1.206c0.071,0.496,0.142,1.063,0.142,1.631C147.359,65.95,147.289,66.518,147.218,67.014z"/>
				<path style="fill:#999999;" d="M159.06,55.1v5.389c-0.355-0.425-0.78-0.78-1.276-0.922c-0.425-0.213-0.922-0.284-1.56-0.284
					c-0.567,0-1.064,0.142-1.56,0.284c-0.497,0.212-0.922,0.425-1.205,0.78c-0.284,0.284-0.497,0.638-0.639,0.993
					c-0.212,0.354-0.283,0.78-0.354,1.205c-0.071,0.426-0.142,0.851-0.213,1.347v2.907c0.071,0.426,0.142,0.922,0.213,1.347
					c0.071,0.425,0.142,0.78,0.354,1.206c0.142,0.354,0.355,0.638,0.639,0.922c0.283,0.354,0.709,0.638,1.205,0.851
					c0.496,0.142,0.993,0.213,1.631,0.213c0.567,0,1.135-0.071,1.56-0.284c0.426-0.142,0.851-0.496,1.276-0.922v1.064h2.836V55.1
					H159.06z M158.989,66.659c-0.071,0.425-0.142,0.78-0.284,1.063c-0.142,0.355-0.354,0.567-0.567,0.709
					c-0.284,0.213-0.638,0.284-1.064,0.284c-0.426,0-0.78-0.071-0.993-0.284c-0.284-0.142-0.496-0.354-0.638-0.709
					c-0.142-0.284-0.213-0.638-0.213-1.063c-0.071-0.425-0.071-0.851-0.071-1.347c0-0.426,0-0.922,0.071-1.276
					c0-0.425,0.071-0.78,0.213-1.135c0.142-0.284,0.354-0.496,0.638-0.709c0.213-0.142,0.567-0.213,0.993-0.213
					c0.426,0,0.78,0.071,1.064,0.213c0.213,0.213,0.425,0.425,0.567,0.709c0.142,0.354,0.212,0.709,0.284,1.135
					c0.071,0.354,0.071,0.851,0.071,1.276C159.06,65.809,159.06,66.234,158.989,66.659z"/>
			</g>
			<polygon style="fill:#87AA94;" points="226.713,57.603 226.713,52.788 202.543,52.788 202.543,69.593 226.713,69.593 
				226.713,64.778 229.734,64.778 229.734,57.603 			"/>
		</g>
		<g>
			<rect x="78.696" y="155.474" style="fill:#DBDDDC;" width="148.565" height="12.63"/>
			<rect x="55.97" y="155.474" style="fill:#7DC2D2;" width="125.134" height="12.63"/>
		</g>
	</g>
	<path style="opacity:0.04;fill:#040000;" d="M265.43,0H141.544v512H265.43c9.857,0,17.729-7.942,17.729-17.728V17.729
		C283.159,7.942,275.288,0,265.43,0z"/>
</g>
</svg>