<?xml version="1.0" encoding="iso-8859-1"?>

<!DOCTYPE svg PUBLIC "-//W3C//DTD SVG 1.1//EN" "http://www.w3.org/Graphics/SVG/1.1/DTD/svg11.dtd">
<!-- Uploaded to: SVG Repo, www.svgrepo.com, Generator: SVG Repo Mixer Tools -->
<svg version="1.1" id="_x36_" xmlns="http://www.w3.org/2000/svg" xmlns:xlink="http://www.w3.org/1999/xlink" 
	 viewBox="0 0 512 512"  xml:space="preserve">
<g>
	<path style="opacity:0.15;fill:#2CAB92;" d="M258.718,116.272v319.922H5.747V152.156C2.097,140.894,0,128.777,0,116.272
		C0,52.039,52.117,0,116.272,0C156.505,0,192,20.428,212.816,51.495c12.427,18.486,19.728,40.777,19.728,64.777H258.718z"/>
	<g>
		<g>
			<rect x="5.747" y="116.272" style="fill:#80736A;" width="500.505" height="319.922"/>
			<rect x="25.452" y="247.559" style="fill:#504F4F;" width="461.096" height="102.535"/>
			<g>
				<path style="fill:#E0E0E0;" d="M354.332,246.546H157.668v102.847h49.252c0.614-26.605,22.328-47.995,49.08-47.995
					s48.466,21.39,49.08,47.995h49.252V246.546z"/>
				<path style="fill:#CC5452;" d="M256,301.398c-26.752,0-48.466,21.39-49.08,47.995h98.16
					C304.466,322.788,282.752,301.398,256,301.398z"/>
				<g>
					<path style="fill:#595A59;" d="M256,305.969c-0.948,0-1.715-0.767-1.715-1.715v-28.59c0-0.948,0.767-1.715,1.715-1.715
						c0.948,0,1.715,0.767,1.715,1.715v28.59C257.715,305.202,256.948,305.969,256,305.969z"/>
				</g>
			</g>
		</g>
		<g>
			<path style="fill:#E0E0E0;" d="M115.615,282.939l-8.555,8.555l-7.668-7.668l8.555-8.555c-12.494-8.845-29.893-7.705-41.083,3.485
				c-12.5,12.5-12.5,32.766,0,45.266c12.5,12.5,32.766,12.499,45.265,0C123.32,312.831,124.461,295.433,115.615,282.939z"/>
			<path style="fill:#80736A;" d="M107.06,291.494l8.555-8.555c-1.035-1.462-2.175-2.873-3.485-4.183
				c-1.31-1.31-2.721-2.45-4.183-3.486l-8.555,8.555L107.06,291.494z"/>
		</g>
		<g>
			<path style="fill:#E0E0E0;" d="M400.426,319.858l8.555-8.555l7.668,7.668l-8.555,8.555c12.494,8.845,29.893,7.705,41.083-3.485
				c12.5-12.5,12.5-32.766,0-45.266c-12.5-12.5-32.766-12.499-45.266,0C392.721,289.965,391.58,307.363,400.426,319.858z"/>
			<path style="fill:#80736A;" d="M408.981,311.302l-8.555,8.555c1.035,1.462,2.175,2.873,3.485,4.183
				c1.31,1.31,2.721,2.45,4.183,3.486l8.555-8.555L408.981,311.302z"/>
		</g>
		<g>
			<rect x="65.489" y="377.083" style="fill:#E0E0E0;" width="32.017" height="32.017"/>
			<rect x="119.553" y="377.083" style="fill:#E0E0E0;" width="32.017" height="32.017"/>
			<rect x="178.926" y="386.51" style="fill:#E0E0E0;" width="287.971" height="10.285"/>
			<rect x="336.89" y="375.368" style="fill:#D0CDCD;" width="14.305" height="29.14"/>
		</g>
		<g>
			<g>
				<circle style="fill:#EEEFDE;" cx="116.3" cy="116.274" r="116.274"/>
				<g>
					<path style="fill:#4A4D43;" d="M151.102,32.127c-8.345-10.471-21.199-17.189-35.63-17.189
						c-13.506,0-25.634,5.884-33.975,15.221l21.876,56.737h26.611L151.102,32.127z"/>
					<path style="fill:#4A4D43;" d="M23.428,131.496c-4.895,12.463-4.286,26.953,2.929,39.451
						c6.753,11.697,17.912,19.258,30.17,21.813l38.198-47.314l-13.305-23.046L23.428,131.496z"/>
					<path style="fill:#4A4D43;" d="M173.54,192.759c13.241-1.992,25.485-9.765,32.701-22.262
						c6.753-11.697,7.721-25.141,3.805-37.034l-60.074-9.423l-13.306,23.046L173.54,192.759z"/>
				</g>
				<circle style="fill:#4A4D43;" cx="116.3" cy="116.274" r="9.143"/>
			</g>
			<g>
				<path style="fill:#EEEFDE;" d="M512,116.272c0,12.66-2.02,24.777-5.748,36.194c-15.223,46.524-58.951,80.078-110.524,80.078
					c-64.233,0-116.272-52.039-116.272-116.271c0-20.971,5.592-40.622,15.301-57.631c10.252-18.097,25.398-33.165,43.495-43.495
					C355.184,5.515,374.835,0,395.728,0c20.349,0,39.456,5.204,56.078,14.369c19.262,10.641,35.106,26.563,45.747,45.748
					C506.718,76.738,512,95.922,512,116.272z"/>
				<g>
					<path style="fill:#4A4D43;" d="M430.503,32.127c-8.345-10.471-21.199-17.189-35.63-17.189
						c-13.506,0-25.634,5.884-33.975,15.221l21.876,56.737h26.611L430.503,32.127z"/>
					<path style="fill:#4A4D43;" d="M302.829,131.496c-4.895,12.463-4.286,26.953,2.929,39.451
						c6.753,11.697,17.912,19.258,30.17,21.813l38.198-47.314l-13.305-23.046L302.829,131.496z"/>
					<path style="fill:#4A4D43;" d="M452.94,192.759c13.24-1.992,25.485-9.765,32.701-22.262
						c6.753-11.697,7.721-25.141,3.805-37.034l-60.074-9.423l-13.306,23.046L452.94,192.759z"/>
				</g>
				<circle style="fill:#4A4D43;" cx="395.7" cy="116.274" r="9.143"/>
			</g>
		</g>
	</g>
</g>
</svg>