<?xml version="1.0" encoding="iso-8859-1"?>

<!DOCTYPE svg PUBLIC "-//W3C//DTD SVG 1.1//EN" "http://www.w3.org/Graphics/SVG/1.1/DTD/svg11.dtd">
<!-- Uploaded to: SVG Repo, www.svgrepo.com, Generator: SVG Repo Mixer Tools -->
<svg version="1.1" id="_x35_" xmlns="http://www.w3.org/2000/svg" xmlns:xlink="http://www.w3.org/1999/xlink" 
	 viewBox="0 0 512 512"  xml:space="preserve">
<g>
	<g>
		<path style="fill:#EEEDD7;" d="M187.227,480.037h-19.195c-4.86,0-8.836-3.976-8.836-8.836V262.684c0-4.86,3.976-8.836,8.836-8.836
			h19.195c4.86,0,8.836,3.976,8.836,8.836v208.518C196.062,476.061,192.086,480.037,187.227,480.037z"/>
		<path style="fill:#EEEDD7;" d="M364.215,480.037H345.02c-4.86,0-8.836-3.976-8.836-8.836V262.684c0-4.86,3.976-8.836,8.836-8.836
			h19.195c4.86,0,8.836,3.976,8.836,8.836v208.518C373.05,476.061,369.074,480.037,364.215,480.037z"/>
		<rect x="55.788" y="132.356" style="fill:#4B4A4A;" width="430.876" height="316.184"/>
		<rect x="55.788" y="328.252" style="fill:#E0E0E0;" width="433.514" height="12.788"/>
		<path style="fill:#E0E0E0;" d="M336.184,253.266H204.005v69.124h33.103c0.412-17.881,15.007-32.258,32.987-32.258
			s32.574,14.376,32.987,32.258h33.103V253.266z"/>
		<path style="fill:#EA5957;" d="M270.095,290.132c-17.98,0-32.575,14.376-32.987,32.258h65.974
			C302.669,304.508,288.075,290.132,270.095,290.132z"/>
		<g>
			<path style="fill:#595A59;" d="M270.095,293.204c-0.637,0-1.153-0.516-1.153-1.153v-19.216c0-0.637,0.516-1.153,1.153-1.153
				c0.637,0,1.153,0.516,1.153,1.153v19.216C271.247,292.688,270.732,293.204,270.095,293.204z"/>
		</g>
		<g>
			<path style="fill:#E0E0E0;" d="M115.14,413.278l7.856-7.856l7.042,7.042l-7.856,7.856c11.474,8.122,27.45,7.075,37.726-3.201
				c11.478-11.478,11.478-30.089,0-41.568c-11.478-11.478-30.089-11.478-41.567,0C108.064,385.827,107.017,401.804,115.14,413.278z"
				/>
			<path style="fill:#4B4A4A;" d="M122.996,405.421l-7.856,7.856c0.951,1.343,1.998,2.638,3.2,3.841s2.499,2.25,3.841,3.201
				l7.856-7.856L122.996,405.421z"/>
		</g>
		<g>
			<path style="fill:#E0E0E0;" d="M389.461,372.351l7.856,7.856l-7.042,7.042l-7.856-7.856c-8.122,11.474-7.075,27.45,3.201,37.726
				c11.478,11.478,30.089,11.478,41.568,0c11.478-11.478,11.478-30.089,0-41.567C416.911,365.275,400.935,364.228,389.461,372.351z"
				/>
			<path style="fill:#4B4A4A;" d="M397.317,380.207l-7.856-7.856c-1.343,0.951-2.638,1.997-3.841,3.2s-2.25,2.499-3.201,3.842
				l7.856,7.856L397.317,380.207z"/>
		</g>
		<rect x="204.005" y="359.342" style="fill:#E0E0E0;" width="30.933" height="30.933"/>
		<rect x="255.781" y="359.342" style="fill:#EA5957;" width="30.933" height="30.933"/>
		<rect x="307.557" y="359.342" style="fill:#E0E0E0;" width="30.933" height="30.933"/>
		<g>
			<polygon style="fill:#BFAC8E;" points="371.972,78.247 369.813,85.92 348.713,80.085 234.42,48.595 207.006,41.002 
				209.084,33.329 224.27,37.485 355.987,73.851 			"/>
		</g>
		<circle style="fill:#BFAC8E;" cx="415.216" cy="154.069" r="78.28"/>
		<circle style="fill:#BFAC8E;" cx="132.065" cy="135.087" r="78.28"/>
		<path style="fill:#EEEDD7;" d="M498.653,101.345c-8.312-14.226-20.221-26.135-34.448-34.448
			c-14.306-8.472-31.091-13.347-48.994-13.347c-22.379,0-42.92,7.593-59.224,20.301c-2.558,1.919-4.955,3.996-7.273,6.234
			c-14.546,13.667-24.777,31.81-28.613,52.271c-1.119,5.835-1.678,11.829-1.678,17.983c0,53.47,43.319,96.79,96.789,96.79
			c28.293,0,53.789-12.149,71.453-31.57C502.409,198.374,512,175.516,512,150.339C512,132.436,507.125,115.652,498.653,101.345z
			 M477.233,188.863c-3.037,5.195-8.073,8.472-13.587,9.272L448.3,179.112l5.515-9.591l25.017,3.916
			C480.429,178.393,480.03,183.988,477.233,188.863z M353.668,189.503c-3.037-5.195-3.277-11.19-1.279-16.385l24.137-3.837
			l5.595,9.591l-15.905,19.742C361.101,197.575,356.466,194.378,353.668,189.503z M352.39,129.399
			c-1.998-5.195-1.759-11.189,1.279-16.384c2.798-4.875,7.433-7.993,12.548-9.112l15.905,19.742l-5.115,8.712l-0.48,0.88
			l-5.514-0.88L352.39,129.399z M429.677,86.959l-8.792,22.779h-11.03l-9.112-23.658c3.437-3.836,8.472-6.314,14.147-6.314
			C420.886,79.766,426.241,82.563,429.677,86.959z M400.744,216.437l9.112-23.658h11.03l8.792,22.779
			c-3.437,4.396-8.792,7.193-14.786,7.193C409.216,222.751,404.181,220.273,400.744,216.437z M453.815,132.995l-0.4-0.64
			l-5.115-8.952l15.345-19.022c5.515,0.88,10.55,4.076,13.587,9.272c2.797,4.875,3.197,10.47,1.599,15.425l-20.94,3.277
			L453.815,132.995z"/>
		<path style="fill:#EEEDD7;" d="M234.42,48.595c-3.197-3.836-6.554-7.593-10.151-11.11c-11.989-11.669-26.295-21.18-42.12-27.574
			C166.724,3.517,149.779,0,132.036,0C59.145,0,0,59.145,0,132.116c0,17.743,3.517,34.608,9.831,50.033
			c9.591,23.338,25.656,43.319,45.957,57.706c21.579,15.346,47.875,24.297,76.248,24.297c9.351,0,18.543-0.959,27.334-2.877
			c8.313-1.678,16.305-4.236,23.898-7.433c47.475-19.981,80.805-66.897,80.884-121.486v-0.24
			C264.152,100.386,253.043,71.373,234.42,48.595z M198.135,69.375c7.513,1.119,14.466,5.595,18.542,12.628
			c3.837,6.634,4.396,14.306,2.158,21.1l-14.386,2.238l-19.742,3.117l-7.512-13.108l11.509-14.227L198.135,69.375z M131.557,35.807
			c6.874,0,13.028,2.637,17.664,7.033c0.959,0.799,1.838,1.678,2.637,2.717l-4.875,12.708l-7.113,18.383h-15.186l-2.558-6.714
			l-4.556-11.749l-5.275-13.747C117.01,39.164,123.884,35.807,131.557,35.807z M48.035,81.124
			c3.836-6.634,10.151-10.95,17.104-12.388L75.29,81.284l11.589,14.306l-7.592,13.108l-19.742-3.117l-13.188-2.078
			C43.559,96.47,43.959,88.238,48.035,81.124z M65.139,197.975c-3.357-0.72-6.474-2.078-9.351-3.996
			c-3.037-2.158-5.755-4.955-7.753-8.392c-4.076-7.114-4.476-15.346-1.679-22.459l9.432-1.439l2.478-0.4l21.02-3.277l7.592,13.028
			l-13.107,16.305L65.139,197.975z M131.557,230.904c-7.673,0-14.546-3.357-19.262-8.632l3.996-10.47l8.393-21.819h15.186
			l8.392,21.739l3.597,9.432C147.062,227.067,139.789,230.904,131.557,230.904z M216.677,184.627
			c-4.076,7.113-11.029,11.509-18.542,12.628l-7.913-9.751l-13.027-16.145l7.512-13.108l21.02,3.277l13.108,2.078
			C221.073,170.4,220.513,177.993,216.677,184.627z"/>
	</g>
	<path style="opacity:0.1;fill:#040000;" d="M159.196,448.539v22.661c0,4.86,3.976,8.836,8.835,8.836h19.195
		c4.86,0,8.836-3.976,8.836-8.836v-22.661h140.122v22.661c0,4.86,3.976,8.836,8.836,8.836h19.195c4.86,0,8.836-3.976,8.836-8.836
		v-22.661h113.613V341.041h2.638v-12.788h-2.638V215.558C502.409,198.374,512,175.516,512,150.339
		c0-17.903-4.875-34.687-13.347-48.994c-2.612-4.47-5.691-8.612-8.974-12.585L129.9,448.539H159.196z"/>
</g>
</svg>