<?xml version="1.0" encoding="utf-8"?>
<!-- Uploaded to: SVG Repo, www.svgrepo.com, Generator: SVG Repo Mixer Tools -->
<svg width="800px" height="800px" viewBox="0 0 1024 1024" class="icon"  version="1.1" xmlns="http://www.w3.org/2000/svg"><path d="M822.144 43.9296v-0.9984H162.816v937.83552h470.28224c1.00864 0.04096 1.95584 0.30208 2.9696 0.30208h176.20992c1.01888 0 1.96608-0.256 2.9696-0.30208h6.89152v-0.69632c33.664-4.82816 59.63264-33.49504 59.63264-68.49536V112.42496c0-35.00032-25.96352-63.67232-59.62752-68.49536z" fill="#F38181" /><path d="M142.22848 161.61792h201.728v86.51264h-201.728zM142.22848 366.36672h201.728v86.51264h-201.728zM142.22848 571.12064h201.728v86.51264h-201.728zM142.22848 775.86944h201.728v86.51264h-201.728zM741.28896 30.37184h42.25024v963.26144h-42.25024z" fill="#CE6A6A" /></svg>