<?xml version="1.0" encoding="utf-8"?>
<!-- Uploaded to: SVG Repo, www.svgrepo.com, Generator: SVG Repo Mixer Tools -->
<svg width="800px" height="800px" viewBox="0 0 1024 1024" class="icon"  version="1.1" xmlns="http://www.w3.org/2000/svg"><path d="M346.048 86.4a22.4 22.4 0 0 0-22.4-22.4h-128c-70.4 0-128 57.6-128 128v129.024a22.4 22.4 0 1 0 44.864 0h211.2V108.736a22.4 22.4 0 0 0 22.336-22.336zM835.712 64h-128.064a22.4 22.4 0 1 0 0 44.8h0.064v212.224h211.2a22.4 22.4 0 1 0 44.864 0V192c-0.064-70.4-57.728-128-128.064-128zM346.048 937.536a22.4 22.4 0 0 0-22.4-22.4v-210.176h-211.2a22.4 22.4 0 0 0-44.864 0V832c0 70.4 57.6 128 128 128h128v-0.064a22.4 22.4 0 0 0 22.464-22.4zM941.248 682.624a22.4 22.4 0 0 0-22.4 22.4h-211.2V915.2h-0.064a22.4 22.4 0 1 0 0 44.8h128.064c70.4 0 128-57.6 128-128v-126.976a22.4 22.4 0 0 0-22.4-22.4z" fill="" /><path d="M195.648 915.2c-45.888 0-83.2-37.312-83.2-83.2V192c0-45.888 37.312-83.2 83.2-83.2h640c45.888 0 83.2 37.312 83.2 83.2v640c0 45.888-37.312 83.2-83.2 83.2h-640z" fill="#4C4C4C" /><path d="M195.648 892.8a60.928 60.928 0 0 1-60.8-60.8V192a60.8 60.8 0 0 1 60.8-60.8h640c33.472 0 60.8 27.264 60.8 60.8v640c0 33.472-27.328 60.8-60.8 60.8h-640z" fill="#FFFFFF" /><path d="M803.712 478.976c0 17.6-14.4 32-32 32h-512a32.064 32.064 0 0 1-32-32c0-17.6 14.4-32 32-32h512c17.6 0 32 14.4 32 32z" fill="#00F70A" /></svg>