<?xml version="1.0" encoding="iso-8859-1"?>

<!DOCTYPE svg PUBLIC "-//W3C//DTD SVG 1.1//EN" "http://www.w3.org/Graphics/SVG/1.1/DTD/svg11.dtd">
<!-- Uploaded to: SVG Repo, www.svgrepo.com, Generator: SVG Repo Mixer Tools -->
<svg height="800px" width="800px" version="1.1" id="_x36_" xmlns="http://www.w3.org/2000/svg" xmlns:xlink="http://www.w3.org/1999/xlink" 
	 viewBox="0 0 512 512"  xml:space="preserve">
<g>
	<path style="fill:#8ECCEA;" d="M512,80.744v350.432C512,475.768,475.768,512,431.175,512H80.825c-8.935,0-17.542-1.475-25.575-4.18
		c-24.1-8.034-43.118-27.051-51.151-51.152C1.475,448.635,0,440.111,0,431.176V80.744C0,36.232,36.232,0,80.825,0h350.35
		c13.444,0,26.067,3.279,37.216,9.1c14.755,7.705,26.887,19.837,34.592,34.592C508.721,54.758,512,67.381,512,80.744z"/>
	<path style="fill:#FFFFFF;" d="M20.366,431.198c0,33.232,27.19,60.422,60.422,60.422h350.423c33.232,0,60.422-27.19,60.422-60.422
		V266.406H20.366V431.198z"/>
	<path style="fill:#F4F4F5;" d="M431.211,20.353H80.788c-33.232,0-60.422,27.19-60.422,60.422v185.631h471.267V80.774
		C491.633,47.542,464.443,20.353,431.211,20.353z"/>
	<g>
		<path style="fill:#FFFFFF;" d="M67.098,304.198L67.098,304.198c-8.628,0-15.687-7.059-15.687-15.687v-36.044
			c0-8.628,7.059-15.687,15.687-15.687h0c8.628,0,15.687,7.059,15.687,15.687v36.044C82.785,297.139,75.726,304.198,67.098,304.198z
			"/>
		<path style="fill:#FFFFFF;" d="M458.25,304.198L458.25,304.198c-8.628,0-15.687-7.059-15.687-15.687v-36.044
			c0-8.628,7.059-15.687,15.687-15.687l0,0c8.628,0,15.687,7.059,15.687,15.687v36.044
			C473.937,297.139,466.878,304.198,458.25,304.198z"/>
	</g>
	<path style="fill:none;" d="M263.964,270.489c11.889,0,20.488-7.885,24.172-14.504h-45.92
		C247.081,265.108,254.607,270.489,263.964,270.489z"/>
	<path style="fill:none;" d="M290.52,232.645c0-26.225-8.963-49.463-27.884-49.463c-16.599,0-26.557,19.586-26.557,44.151
		c0,11.435,2.198,21.268,6.137,28.653h45.92c0.019-0.034,0.042-0.07,0.061-0.104C290.188,251.235,290.52,244.263,290.52,232.645z"/>
	<g>
		<path style="fill:#666767;" d="M286.255,265.709c-3.523,6.329-11.746,13.869-23.114,13.869c-8.947,0-16.143-5.146-20.796-13.869
			h-58.39c8.197,32.456,34.074,51.008,63.632,51.008c18.411,0,32.378-6.666,41.265-15.872l0.953,0.318
			c-9.206,40.313-35.552,56.502-64.756,59.36c-12.063,1.269-15.871,1.587-23.172,0.951v43.171c3.809,0.317,8.253,0.317,13.015,0.317
			c79.524,0,127.972-52.793,130.363-139.253H286.255z"/>
		<path style="fill:#5D5E5E;" d="M236.477,238.311c0-23.49,9.523-42.218,25.395-42.218c18.093,0,26.663,22.221,26.663,47.297
			c0,11.11-0.317,17.776-2.221,22.22c-0.018,0.033-0.04,0.066-0.059,0.099h58.999c0.062-2.234,0.101-4.485,0.101-6.764
			c0-56.82-26.982-101.896-81.897-101.896c-50.472,0-82.215,41.267-82.215,86.024c0,8.155,0.961,15.706,2.712,22.636h58.39
			C238.578,258.648,236.477,249.246,236.477,238.311z"/>
	</g>
	<g>
		<path style="fill:#A7D3EB;" d="M304.313,114.086h-96.627c-19.603,0-35.641-16.038-35.641-35.641v0
			c0-19.603,16.038-35.641,35.641-35.641h96.627c19.603,0,35.641,16.038,35.641,35.641v0
			C339.954,98.048,323.916,114.086,304.313,114.086z"/>
		<g>
			<path style="fill:#FFFFFF;" d="M245.179,62.054h-7.049l-5.41,13.689c-1.475,3.853-2.623,7.378-3.607,10.739h-0.164
				c-0.902-3.442-2.049-6.886-3.361-10.739l-4.837-12.296l-0.492-1.393h-7.049l-0.82,9.754l-1.721,21.478h5.328l0.82-12.952
				c0.328-4.345,0.574-9.263,0.655-13.115h0.164c0.902,3.77,2.296,7.787,3.771,11.886l5.164,13.854h4.262l5.492-14.099
				c1.639-4.016,3.033-7.952,4.18-11.64h0.164c-0.082,3.853,0.246,8.689,0.492,12.869l0.82,13.199h5.492L245.179,62.054z"/>
			<path style="fill:#FFFFFF;" d="M272.804,87.874v-8.442c0-4.754-2.131-9.099-10.082-9.099c-3.607,0-6.804,0.819-8.689,1.803
				l1.148,3.197c1.721-0.984,4.181-1.558,6.558-1.558c5.41,0,5.41,3.361,5.41,5.001c-9.181,0-15.001,2.787-15.001,8.361
				c0,3.442,2.869,6.557,7.869,6.557c3.361,0,6.066-1.312,7.542-3.033h0.164l0.41,2.624h5.082
				C272.886,91.81,272.804,89.841,272.804,87.874z M267.312,85.662c0,2.623-2.541,4.59-5.656,4.59c-2.049,0-3.934-1.147-3.934-3.606
				c0-4.017,5.164-4.673,9.591-4.673V85.662z"/>
			<path style="fill:#FFFFFF;" d="M295.346,70.824l-4.344,12.624c-0.492,1.476-1.066,3.115-1.475,4.426h-0.082
				c-0.41-1.311-0.984-2.95-1.475-4.426l-4.919-12.624h-6.229l9.262,20.657c0.246,0.491,0.328,0.738,0.328,0.984
				c0,0.656-2.131,5.164-8.033,6.968l1.475,3.935c1.311-0.246,3.852-0.985,6.312-2.87c3.197-2.623,5.492-6.803,8.608-14.099
				l6.558-15.575H295.346z"/>
		</g>
	</g>
	<g>
		<path style="fill:#646363;" d="M66.183,301.512L66.183,301.512c-8.628,0-15.687-7.059-15.687-15.687v-36.044
			c0-8.628,7.059-15.687,15.687-15.687h0c8.628,0,15.687,7.059,15.687,15.687v36.044C81.87,294.453,74.811,301.512,66.183,301.512z"
			/>
		<path style="fill:#646363;" d="M457.335,301.512L457.335,301.512c-8.628,0-15.687-7.059-15.687-15.687v-36.044
			c0-8.628,7.059-15.687,15.687-15.687l0,0c8.628,0,15.687,7.059,15.687,15.687v36.044
			C473.022,294.453,465.963,301.512,457.335,301.512z"/>
	</g>
</g>
</svg>