<?xml version="1.0" encoding="iso-8859-1"?>

<!DOCTYPE svg PUBLIC "-//W3C//DTD SVG 1.1//EN" "http://www.w3.org/Graphics/SVG/1.1/DTD/svg11.dtd">
<!-- Uploaded to: SVG Repo, www.svgrepo.com, Generator: SVG Repo Mixer Tools -->
<svg height="800px" width="800px" version="1.1" id="_x36_" xmlns="http://www.w3.org/2000/svg" xmlns:xlink="http://www.w3.org/1999/xlink" 
	 viewBox="0 0 512 512"  xml:space="preserve">
<g>
	<polygon style="fill:#96D3D7;" points="512,0 508.64,10.919 478.25,110.41 33.707,110.41 0.034,0 	"/>
	<g>
		<path style="fill:#ADDBDC;" d="M510.093,226.697H1.887c-1.042,0-1.887-0.666-1.887-1.488l33.703-113.321
			c0-0.822,0.845-1.488,1.887-1.488h440.8c1.042,0,1.887,0.666,1.887,1.488L511.98,225.21
			C511.98,226.031,511.135,226.697,510.093,226.697z"/>
	</g>
	<polygon style="fill:#96D3D7;" points="478.277,342.994 33.703,342.994 0,226.697 511.98,226.697 	"/>
	<g>
		<path style="fill:#ADDBDC;" d="M511.448,464.337c0.304,1.082,0.26,2.62-0.097,3.418c-0.357,0.798-3.096,1.451-4.219,1.451H4.902
			c-1.124,0-2.679-0.292-3.456-0.65c-0.777-0.357-1.156-3.135-0.842-4.214l0.08-0.275c0.314-1.079,0.818-2.847,1.12-3.929
			l19.899-71.276c0.302-1.082,0.798-2.853,1.101-3.935l10.35-36.917c0.303-1.082,0.844-2.603,1.201-3.379
			c0.357-0.777,3.096-1.412,4.219-1.412h434.807c1.124,0,2.679,0.275,3.456,0.611c0.777,0.336,1.661,3.099,1.965,4.181
			L511.448,464.337z"/>
	</g>
	<g style="opacity:0.68;">
		<path style="fill:#70A6A8;" d="M208.91,75.471H74.719c-2.811,0-5.09-2.279-5.09-5.09V47.867c0-2.811,2.279-5.09,5.09-5.09H208.91
			c2.811,0,5.09,2.279,5.09,5.09v22.514C214,73.192,211.721,75.471,208.91,75.471z"/>
	</g>
	<g style="opacity:0.68;">
		<path style="fill:#84C3C4;" d="M425.261,166.45H84.125c-2.811,0-5.09-2.279-5.09-5.09v-18.831c0-2.811,2.279-5.09,5.09-5.09
			h341.136c2.811,0,5.09,2.279,5.09,5.09v18.831C430.352,164.171,428.073,166.45,425.261,166.45z"/>
	</g>
	<g style="opacity:0.68;">
		<path style="fill:#84C3C4;" d="M437.261,213.895H74.719c-2.811,0-5.09-2.279-5.09-5.09v-18.831c0-2.811,2.279-5.09,5.09-5.09
			h362.542c2.811,0,5.09,2.279,5.09,5.09v18.831C442.352,211.616,440.073,213.895,437.261,213.895z"/>
	</g>
	<g style="opacity:0.68;">
		<path style="fill:#70A6A8;" d="M437.261,272.166H74.719c-2.811,0-5.09-2.279-5.09-5.09v-18.831c0-2.811,2.279-5.09,5.09-5.09
			h362.542c2.811,0,5.09,2.279,5.09,5.09v18.831C442.352,269.887,440.073,272.166,437.261,272.166z"/>
	</g>
	<g style="opacity:0.68;">
		<path style="fill:#70A6A8;" d="M422.193,324.334H81.058c-2.811,0-5.09-2.279-5.09-5.09v-18.831c0-2.811,2.279-5.09,5.09-5.09
			h341.136c2.811,0,5.09,2.279,5.09,5.09v18.831C427.284,322.055,425.005,324.334,422.193,324.334z"/>
	</g>
	<g style="opacity:0.68;">
		<path style="fill:#84C3C4;" d="M437.261,409.556H74.719c-2.811,0-5.09-2.279-5.09-5.09v-22.514c0-2.811,2.279-5.09,5.09-5.09
			h362.542c2.811,0,5.09,2.279,5.09,5.09v22.514C442.352,407.277,440.073,409.556,437.261,409.556z"/>
	</g>
	<g>
		<path style="fill:#84C3C5;" d="M419.839,0c-1.451,29.397-25.732,52.762-55.434,52.762c-2.52,0-4.963-0.153-7.407-0.611
			C330.731,48.792,310.268,26.877,308.97,0h-22.525c1.222,32.756,22.601,60.398,51.998,70.705
			c8.094,2.902,16.875,4.505,25.961,4.505c42.072,0,76.432-33.444,77.959-75.21H419.839z"/>
	</g>
	<g>
		<path style="fill:#84C3C5;" d="M400.52,0c-0.305,4.046-1.298,7.864-2.825,11.453c-3.665,8.552-10.461,15.348-19.013,19.013
			c-4.352,1.909-9.239,2.978-14.278,2.978c-19.013,0-34.589-14.736-36.04-33.444h-13.515c1.374,25.426,21.99,45.813,47.493,46.806
			c0.687,0.076,1.374,0.076,2.062,0.076c26.495,0,48.18-20.769,49.631-46.883H400.52z"/>
	</g>
</g>
</svg>