<?xml version="1.0" encoding="utf-8"?>
<!-- Uploaded to: SVG Repo, www.svgrepo.com, Generator: SVG Repo Mixer Tools -->
<svg width="800px" height="800px" viewBox="0 0 1024 1024" class="icon"  version="1.1" xmlns="http://www.w3.org/2000/svg"><path d="M106.666667 725.333333h128v64H106.666667zM789.333333 725.333333h128v64h-128z" fill="#546E7A" /><path d="M938.666667 746.666667H85.333333c-46.933333 0-85.333333-38.4-85.333333-85.333334V362.666667c0-46.933333 38.4-85.333333 85.333333-85.333334h853.333334c46.933333 0 85.333333 38.4 85.333333 85.333334v298.666666c0 46.933333-38.4 85.333333-85.333333 85.333334z" fill="#78909C" /><path d="M106.666667 405.333333h42.666666v42.666667H106.666667zM106.666667 490.666667h42.666666v42.666666H106.666667zM106.666667 576h42.666666v42.666667H106.666667zM192 405.333333h42.666667v42.666667H192zM192 490.666667h42.666667v42.666666H192zM192 576h42.666667v42.666667H192zM277.333333 405.333333h42.666667v42.666667h-42.666667zM277.333333 490.666667h42.666667v42.666666h-42.666667zM277.333333 576h42.666667v42.666667h-42.666667zM362.666667 405.333333h42.666666v42.666667h-42.666666zM362.666667 490.666667h42.666666v42.666666h-42.666666zM362.666667 576h42.666666v42.666667h-42.666666zM448 405.333333h42.666667v42.666667h-42.666667zM448 490.666667h42.666667v42.666666h-42.666667zM448 576h42.666667v42.666667h-42.666667z" fill="#37474F" /><path d="M789.333333 512m-170.666666 0a170.666667 170.666667 0 1 0 341.333333 0 170.666667 170.666667 0 1 0-341.333333 0Z" fill="#37474F" /><path d="M789.333333 512m-128 0a128 128 0 1 0 256 0 128 128 0 1 0-256 0Z" fill="#AA00FF" /><path d="M868.266667 462.933333c-21.333333-23.466667-49.066667-36.266667-78.933334-36.266666s-59.733333 12.8-78.933333 36.266666c-8.533333 8.533333-6.4 21.333333 2.133333 29.866667 8.533333 8.533333 21.333333 6.4 29.866667-2.133333 25.6-27.733333 70.4-27.733333 96 0 4.266667 4.266667 10.666667 6.4 14.933333 6.4 4.266667 0 10.666667-2.133333 14.933334-6.4 8.533333-6.4 8.533333-19.2 0-27.733334z" fill="#EA80FC" /></svg>