<?xml version="1.0" encoding="iso-8859-1"?>

<!DOCTYPE svg PUBLIC "-//W3C//DTD SVG 1.1//EN" "http://www.w3.org/Graphics/SVG/1.1/DTD/svg11.dtd">
<!-- Uploaded to: SVG Repo, www.svgrepo.com, Generator: SVG Repo Mixer Tools -->
<svg version="1.1" id="_x36_" xmlns="http://www.w3.org/2000/svg" xmlns:xlink="http://www.w3.org/1999/xlink" 
	 viewBox="0 0 512 512"  xml:space="preserve">
<g>
	<g>
		<polygon style="fill:#E7D3BF;" points="60.003,194.508 427.566,194.508 309.82,96.386 177.749,96.386 		"/>
		<polygon style="fill:#A69B8F;" points="210.029,69.487 177.749,96.386 309.82,96.386 277.54,69.487 		"/>
		<g>
			<path style="fill:#787878;" d="M131.613,432.42v64.701c0,8.162-6.717,14.879-14.879,14.879H89.783
				c-8.247,0-14.879-6.717-14.879-14.879V432.42c0-1.615,1.36-2.977,2.976-2.977h50.758
				C130.253,429.444,131.613,430.805,131.613,432.42z"/>
			<path style="fill:#787878;" d="M397.787,511.978H370.87c-8.218,0-14.881-6.662-14.881-14.881V432.44
				c0-1.644,1.332-2.976,2.976-2.976h50.726c1.644,0,2.976,1.332,2.976,2.976v64.657
				C412.668,505.316,406.006,511.978,397.787,511.978z"/>
		</g>
		<path style="fill:#5D5E5E;" d="M487.598,306.333c0,50.503-20.66,96.5-53.988,129.743c-6.547,6.547-13.519,12.583-20.915,18.025
			c-16.919,12.498-36.049,22.19-56.709,28.312c-16.579,5.016-34.094,7.652-52.203,7.652H183.816c-3.146,0-6.292-0.085-9.437-0.255
			c-6.462-0.34-12.923-0.936-19.13-1.955c-2.636-0.425-5.271-0.936-7.907-1.446c-3.401-0.68-6.802-1.446-10.118-2.381
			c-1.871-0.51-3.741-1.02-5.612-1.615c-20.66-6.122-39.79-15.814-56.709-28.312v-0.085c-0.34-0.17-0.595-0.34-0.85-0.596
			c-2.806-2.04-5.527-4.166-8.162-6.462c-2.381-1.955-4.676-3.996-6.972-6.206c-0.255-0.17-0.595-0.426-0.85-0.766
			c-2.125-1.955-4.251-3.996-6.292-6.206c-0.425-0.339-0.85-0.765-1.19-1.275c-1.956-1.955-3.741-3.911-5.527-6.036l-1.53-1.786
			c-1.786-2.04-3.486-4.166-5.101-6.292c-4.336-5.612-8.418-11.478-12.074-17.599c-0.85-1.275-1.615-2.551-2.211-3.912
			c-1.19-1.87-2.21-3.74-3.146-5.697c-2.04-3.74-3.911-7.566-5.611-11.392c-0.51-1.362-1.105-2.636-1.615-3.997
			c-0.935-2.126-1.786-4.336-2.55-6.462c-1.105-2.805-2.04-5.612-2.891-8.502c-0.68-2.126-1.275-4.251-1.87-6.462
			c-0.425-1.361-0.765-2.805-1.105-4.166c-2.211-8.841-3.741-17.854-4.591-27.037c-0.255-2.38-0.425-4.846-0.51-7.225v-0.341
			C0.085,312.539,0,309.394,0,306.333c0-2.381,0.085-4.761,0.17-7.142c0-0.68,0-1.361,0.085-2.126c0-0.339,0-0.68,0.085-0.935
			c0.085-2.466,0.255-4.932,0.51-7.312c0.085-1.02,0.17-2.126,0.34-3.146c0.17-1.955,0.425-3.911,0.765-5.866
			c0.085-0.851,0.255-1.786,0.425-2.636c0.255-1.785,0.51-3.571,0.936-5.271c0.17-1.361,0.51-2.72,0.85-4.082
			c2.211-10.457,5.356-20.66,9.352-30.436c0.68-1.786,1.446-3.487,2.296-5.272c0.34-0.85,0.765-1.785,1.19-2.635
			c0.765-1.786,1.701-3.656,2.551-5.356c0.085-0.085,0.085-0.17,0.17-0.255c1.105-2.211,2.211-4.421,3.486-6.547
			c2.381-4.421,5.017-8.672,7.822-12.838c1.105-1.615,2.211-3.23,3.316-4.761c1.786-2.551,3.741-5.016,5.612-7.482
			c1.615-1.955,3.146-3.826,4.761-5.697c1.701-1.87,3.315-3.742,5.101-5.612c1.276-1.53,2.721-2.976,4.166-4.421
			c0.34-0.339,0.68-0.68,1.02-0.934c3.571-3.486,7.312-6.887,11.138-10.118c1.956-1.616,3.911-3.146,5.867-4.676
			c1.956-1.531,3.996-3.062,6.037-4.506c4.081-2.891,8.332-5.612,12.668-8.162c4.421-2.636,8.927-5.102,13.604-7.398
			c4.421-2.126,9.012-4.166,13.688-5.866c1.701-0.681,3.401-1.361,5.186-1.955c3.401-1.19,6.802-2.296,10.288-3.232
			c2.126-0.679,4.336-1.275,6.462-1.785h0.085c11.818-2.975,24.061-4.761,36.644-5.186c2.381-0.084,4.761-0.169,7.142-0.169h119.965
			c15.049,0,29.672,1.87,43.701,5.27C427.658,147.513,487.598,220.292,487.598,306.333z"/>
		<path style="fill:#E7D3BF;" d="M423.832,7.483v37.579c0,7.788-2.519,15.026-6.666,21.085h0.119
			c-0.851,1.276-1.786,2.381-2.721,3.571c-1.02,1.105-2.04,2.211-3.146,3.146c-1.02,0.935-2.125,1.87-3.316,2.636
			c-2.296,1.7-4.676,3.061-7.312,4.166c-0.766,0.255-1.446,0.595-2.211,0.765c-0.85,0.339-1.701,0.595-2.551,0.765
			c-0.17,0.17-0.426,0.17-0.68,0.255c-1.361,0.34-2.806,0.596-4.251,0.766c-1.615,0.254-3.146,0.339-4.761,0.339H101.26
			c-0.765,0-1.53-0.085-2.295-0.085c-0.851,0-1.701-0.085-2.466-0.254c-0.34,0-0.68-0.085-0.935-0.17c-0.085,0-0.085,0-0.17,0
			c-1.02-0.085-1.955-0.255-2.89-0.596c-0.425-0.085-0.851-0.17-1.276-0.34c-0.085,0-0.085,0-0.17,0
			c-0.68-0.17-1.276-0.34-1.871-0.595c-0.68-0.17-1.36-0.424-1.955-0.765c-0.17,0-0.255,0-0.425-0.085
			c-1.19-0.511-2.296-1.021-3.316-1.616c-0.085,0-0.085,0-0.085,0c-1.105-0.595-2.125-1.276-3.146-1.955
			c-0.17-0.085-0.34-0.17-0.425-0.339c-0.17-0.085-0.426-0.255-0.595-0.425c-1.105-0.681-2.126-1.531-3.061-2.466
			c-0.085-0.085-0.17-0.17-0.34-0.255c-0.085-0.085-0.085-0.085-0.17-0.17c-0.765-0.765-1.7-1.7-2.465-2.55
			c-0.085-0.085-0.085-0.085-0.17-0.17c-0.236-0.263-0.379-0.573-0.603-0.84c-0.727-0.891-1.434-1.775-2.117-2.732
			c-0.425-0.595-0.85-1.189-1.19-1.87c-0.51-0.85-1.02-1.7-1.445-2.636c-0.085-0.169-0.17-0.339-0.255-0.51
			c-0.425-0.935-0.85-1.785-1.19-2.805c-0.425-1.02-0.765-2.04-1.02-3.146c-0.255-0.85-0.51-1.786-0.68-2.636
			c-0.17-0.85-0.34-1.615-0.425-2.38c-0.255-1.701-0.34-3.402-0.34-5.102V7.483C63.766,3.402,67.082,0,71.248,0H416.35
			C420.431,0,423.832,3.402,423.832,7.483z"/>
		<path style="fill:#5D5E5E;" d="M417.266,66.139c-6.714,9.902-18.077,16.391-30.943,16.391H101.275
			c-12.902,0-24.229-6.489-30.979-16.391H417.266z"/>
		<g>
			<circle style="fill:#FEFFFF;" cx="243.785" cy="308.61" r="148.15"/>
			<g>
				<g>
					<rect x="234.25" y="168.586" style="fill:#767A7C;" width="19.068" height="35.006"/>
					<rect x="234.25" y="413.628" style="fill:#767A7C;" width="19.068" height="35.006"/>
				</g>
				<g>
					
						<rect x="172.99" y="185.001" transform="matrix(0.866 -0.5 0.5 0.866 -76.7986 118.3931)" style="fill:#767A7C;" width="19.069" height="35.006"/>
					
						<rect x="295.511" y="397.213" transform="matrix(0.866 -0.5 0.5 0.866 -166.4899 208.0838)" style="fill:#767A7C;" width="19.069" height="35.006"/>
				</g>
				<g>
					
						<rect x="128.144" y="229.847" transform="matrix(0.5 -0.866 0.866 0.5 -145.372 242.9079)" style="fill:#767A7C;" width="19.069" height="35.006"/>
					
						<rect x="340.356" y="352.368" transform="matrix(0.5 -0.866 0.866 0.5 -145.372 487.9497)" style="fill:#767A7C;" width="19.069" height="35.006"/>
				</g>
				<g>
					<rect x="103.761" y="299.076" style="fill:#767A7C;" width="35.006" height="19.069"/>
					<rect x="348.802" y="299.076" style="fill:#767A7C;" width="35.006" height="19.069"/>
				</g>
				<g>
					
						<rect x="128.144" y="352.368" transform="matrix(-0.5 -0.866 0.866 -0.5 -113.7999 674.0389)" style="fill:#767A7C;" width="19.069" height="35.006"/>
					
						<rect x="340.356" y="229.847" transform="matrix(-0.5 -0.866 0.866 -0.5 310.6248 674.0388)" style="fill:#767A7C;" width="19.069" height="35.006"/>
				</g>
				<g>
					
						<rect x="172.99" y="397.213" transform="matrix(-0.866 -0.5 0.5 -0.866 133.2353 865.1332)" style="fill:#767A7C;" width="19.069" height="35.006"/>
					
						<rect x="295.511" y="185.001" transform="matrix(-0.866 -0.5 0.5 -0.866 467.9697 530.4)" style="fill:#767A7C;" width="19.069" height="35.006"/>
				</g>
			</g>
			<g>
				<circle style="fill:#DC4B58;" cx="243.785" cy="306.318" r="23.754"/>
				<polygon style="fill:#DC4B58;" points="243.784,131.997 236.555,310.778 243.784,310.778 251.014,310.778 				"/>
			</g>
		</g>
	</g>
	<path style="opacity:0.1;fill:#FFFFFF;" d="M243.756,0v490.065h-59.94c-3.146,0-6.292-0.085-9.437-0.255
		c-6.462-0.34-12.923-0.936-19.13-1.955c-2.636-0.425-5.271-0.936-7.907-1.446c-3.401-0.68-6.802-1.446-10.118-2.381
		c-1.871-0.424-3.741-0.935-5.612-1.531v14.624c0,8.162-6.717,14.879-14.879,14.879H89.783c-8.247,0-14.879-6.717-14.879-14.879
		v-43.02c-0.255-0.255-0.595-0.425-0.85-0.681c-2.806-2.04-5.527-4.166-8.162-6.462c-2.381-1.955-4.676-3.996-6.972-6.206
		c-0.255-0.17-0.595-0.426-0.85-0.766c-2.125-1.955-4.251-3.996-6.292-6.206c-0.425-0.339-0.85-0.765-1.19-1.275
		c-1.956-1.955-3.741-3.911-5.527-6.036l-1.53-1.786c-1.786-2.04-3.486-4.166-5.101-6.292c-4.336-5.612-8.418-11.478-12.074-17.599
		c-0.85-1.275-1.615-2.551-2.211-3.912c-1.19-1.87-2.21-3.74-3.146-5.697c-2.04-3.74-3.911-7.566-5.611-11.392
		c-0.51-1.362-1.105-2.636-1.615-3.997c-0.935-2.126-1.786-4.336-2.55-6.462c-1.105-2.805-2.04-5.612-2.891-8.502
		c-0.68-2.126-1.275-4.251-1.87-6.462c-0.425-1.361-0.765-2.805-1.105-4.166c-2.211-8.841-3.741-17.854-4.591-27.037
		c-0.255-2.38-0.425-4.846-0.51-7.225v-0.341C0.085,312.539,0,309.394,0,306.333c0-2.381,0.085-4.761,0.17-7.142
		c0-0.68,0-1.361,0.085-2.126c0-0.339,0-0.68,0.085-0.935c0.085-2.466,0.255-4.932,0.51-7.312c0.085-1.02,0.17-2.126,0.34-3.146
		c0.17-1.955,0.425-3.911,0.765-5.866c0.085-0.851,0.255-1.786,0.425-2.636c0.255-1.785,0.51-3.571,0.936-5.271
		c0.17-1.361,0.51-2.72,0.85-4.082c2.211-10.457,5.356-20.66,9.352-30.436c0.68-1.786,1.446-3.487,2.296-5.272
		c0.34-0.85,0.765-1.785,1.19-2.635c0.765-1.786,1.701-3.656,2.551-5.356c0.085-0.085,0.085-0.17,0.17-0.255
		c1.105-2.211,2.211-4.421,3.486-6.547c2.381-4.421,5.017-8.672,7.822-12.838c1.105-1.615,2.211-3.23,3.316-4.761
		c1.786-2.551,3.741-5.016,5.612-7.482c1.615-1.955,3.146-3.826,4.761-5.697c1.701-1.87,3.315-3.742,5.101-5.612
		c1.701-1.785,3.401-3.57,5.186-5.355c3.571-3.486,7.312-6.887,11.138-10.118c1.956-1.616,3.911-3.146,5.867-4.676
		c1.956-1.531,3.996-3.062,6.037-4.506c4.081-2.891,8.332-5.612,12.668-8.162c4.421-2.636,8.927-5.102,13.604-7.398
		c4.421-2.126,9.012-4.081,13.688-5.866c1.701-0.681,3.401-1.361,5.186-1.955c3.401-1.19,6.802-2.296,10.288-3.232
		c2.126-0.679,4.336-1.275,6.462-1.785h0.085l37.75-31.457l16.579-13.859H101.26c-1.19,0-2.465-0.085-3.656-0.255
		c-0.255,0-0.425-0.084-0.68-0.084c-0.425,0-0.765-0.085-1.275-0.17h-0.085c-0.085,0-0.085,0-0.17,0
		c-0.85-0.17-1.87-0.34-2.721-0.596c-0.085,0-0.085,0-0.17,0c-0.425-0.085-0.851-0.17-1.276-0.34c-0.085,0-0.085,0-0.17,0
		c-0.851-0.255-1.786-0.595-2.636-0.935c-0.425-0.084-0.85-0.254-1.19-0.424c-1.276-0.511-2.55-1.106-3.741-1.701
		c0-0.084-0.085-0.084-0.085-0.084c-1.19-0.681-2.381-1.362-3.486-2.126c0-0.085-0.085-0.085-0.085-0.085
		c-0.17-0.085-0.426-0.255-0.595-0.425c-0.935-0.681-1.871-1.446-2.721-2.211c-0.255-0.17-0.425-0.34-0.68-0.511
		c-0.85-0.85-1.785-1.785-2.636-2.72c-0.085-0.085-0.17-0.17-0.255-0.34c-0.936-1.105-1.786-2.21-2.636-3.401
		c-2.721-3.996-4.761-8.672-5.782-13.603c-0.085-0.595-0.255-1.19-0.34-1.785c-0.255-1.871-0.425-3.741-0.425-5.697V7.483
		C63.766,3.402,67.082,0,71.248,0H243.756z"/>
</g>
</svg>